<svg width="180" height="40" viewBox="0 0 180 40" fill="none" xmlns="http://www.w3.org/2000/svg">
<g id="saikat-paul 1" clip-path="url(#clip0_34_893)">
<path id="Vector" d="M15.4384 7.40615C15.2858 7.26877 15.0828 7.143 14.6113 7.04625C14.1416 6.94951 13.8131 6.92242 13.0883 6.92048C12.3636 6.91855 11.8727 6.91081 10.9875 7.03658C10.1024 7.16235 9.55349 7.26103 8.66061 7.54933C7.76772 7.83763 7.28649 8.05047 6.52116 8.47422C5.75389 8.8999 5.34997 9.12048 4.82429 9.67386C4.30054 10.2272 4.05509 10.5755 3.89275 11.2431C3.73234 11.9125 3.77679 12.3208 4.0145 13.0154C4.25222 13.7101 4.49767 14.0429 5.08133 14.7182C5.66693 15.3935 6.09791 15.7108 6.94054 16.3899C7.78318 17.071 8.32819 17.429 9.29645 18.1217C10.2628 18.8163 10.8155 19.1665 11.7799 19.8592C12.7443 20.5539 13.3144 20.906 14.1165 21.589C14.9205 22.274 15.3244 22.632 15.7979 23.2763C16.2695 23.9187 16.4125 24.1934 16.4782 24.8087C16.542 25.4221 16.4956 25.7085 16.1245 26.347C15.7515 26.9836 15.4191 27.3396 14.6171 27.9994C13.815 28.6611 13.2468 29.021 12.1162 29.6499C10.9856 30.2787 10.2338 30.6347 8.96404 31.1475C7.69621 31.6602 6.95021 31.9098 5.77515 32.2156C4.59817 32.5213 3.94879 32.6161 3.08296 32.6741C2.21713 32.7341 1.848 32.6586 1.44214 32.5077C1.03628 32.3568 1.02082 32.2562 1.05367 31.9214C1.08846 31.5848 1.19862 31.3603 1.61028 30.8321C2.02194 30.3039 2.34082 29.9556 3.11389 29.2822C3.88695 28.607 4.43196 28.1832 5.47559 27.4615C6.52116 26.7398 7.13188 26.3605 8.33785 25.6717C9.5419 24.9848 10.2319 24.6365 11.4997 24.0231C12.7675 23.4117 13.4517 23.1157 14.677 22.6126C15.9003 22.1115 16.5246 21.9257 17.6204 21.5097C18.7181 21.0937 19.267 20.8886 20.1599 20.5306C21.0528 20.1727 21.4896 20.0334 22.0848 19.7199C22.682 19.4065 22.9081 19.2478 23.1459 18.9634C23.3816 18.6789 23.4068 18.5125 23.2676 18.2997C23.1304 18.0888 22.8869 17.9088 22.454 17.9069C22.0191 17.903 21.6539 17.965 21.0972 18.2842C20.5387 18.6015 20.2256 18.8744 19.6632 19.4993C19.1027 20.1243 18.7703 20.519 18.293 21.4091C17.8137 22.2991 17.5817 22.8932 17.2745 23.9496C16.9652 25.0042 16.8435 25.6601 16.7488 26.6856C16.6541 27.7092 16.6444 28.2625 16.8029 29.0733C16.9633 29.8821 17.1237 30.2923 17.547 30.7334C17.9702 31.1726 18.3432 31.3081 18.9172 31.2713C19.4893 31.2346 19.8294 31.0198 20.4112 30.5496C20.9929 30.0775 21.2982 29.6982 21.8259 28.9185C22.3535 28.1387 22.6163 27.6337 23.0492 26.6527C23.4821 25.6717 23.6947 25.0274 23.9866 24.0115C24.2803 22.9976 24.4311 22.3262 24.5161 21.5755C24.6012 20.8228 24.52 20.4668 24.4117 20.252C24.3016 20.0372 24.0793 20.1166 23.973 20.4977C23.8667 20.8789 23.8204 21.3491 23.8764 22.1579C23.9344 22.9648 24.0175 23.6323 24.2571 24.534C24.4987 25.4356 24.6765 25.9755 25.0804 26.6662C25.4863 27.3589 25.7453 27.6859 26.2826 27.9936C26.8198 28.3032 27.1754 28.338 27.7668 28.2122C28.3602 28.0865 28.6636 27.8717 29.2473 27.3647C29.829 26.8578 30.1556 26.3586 30.6832 25.6775C31.2089 24.9983 31.493 24.5127 31.8834 23.9651C32.2738 23.4175 32.4207 23.1137 32.6352 22.9396C32.8497 22.7635 32.8227 22.7771 32.9541 23.0867C33.0874 23.3962 33.1261 23.7639 33.302 24.4856C33.4778 25.2092 33.5571 25.8478 33.8315 26.6991C34.1059 27.5505 34.2722 28.0749 34.6742 28.7443C35.0761 29.4119 35.3583 29.8163 35.8376 30.0427C36.3169 30.269 36.6609 30.1297 37.0668 29.8762C37.4726 29.6228 37.6872 29.261 37.8688 28.7734C38.0505 28.2838 38.0447 27.7227 37.9732 27.4383C37.9036 27.1519 37.691 27.1325 37.519 27.3435C37.347 27.5544 37.2736 28.071 37.1151 28.4889C36.9566 28.9069 36.9296 29.2223 36.7286 29.4332C36.5276 29.646 36.4077 29.7524 36.112 29.5473C35.8164 29.3442 35.5767 29.0268 35.2501 28.4154C34.9254 27.804 34.7379 27.3144 34.4828 26.4921C34.2296 25.6698 34.1987 25.0428 33.9784 24.3037C33.76 23.5646 33.7001 23.1524 33.3889 22.7964C33.0778 22.4404 32.8362 22.3765 32.4226 22.5236C32.009 22.6706 31.7713 22.9783 31.3171 23.5297C30.8649 24.0812 30.6542 24.6056 30.1556 25.277C29.655 25.9464 29.3246 26.4186 28.8182 26.8849C28.3119 27.3493 28.0703 27.4866 27.6258 27.6027C27.1832 27.7169 27.0015 27.7072 26.5995 27.4595C26.1975 27.2119 25.9521 26.9816 25.6177 26.3625C25.2853 25.7433 25.1346 25.2189 24.9297 24.3637C24.7268 23.5085 24.6939 22.8583 24.5992 22.0882C24.5064 21.3162 24.547 20.877 24.4581 20.5094C24.3692 20.1417 24.2649 20.0566 24.1586 20.252C24.0503 20.4474 24.0503 20.7628 23.9209 21.4865C23.7894 22.2121 23.7662 22.8854 23.5015 23.8761C23.2367 24.8687 23.0241 25.5053 22.597 26.4495C22.1718 27.3957 21.8858 27.8775 21.3698 28.6011C20.8537 29.3229 20.5174 29.6479 20.015 30.0659C19.5144 30.4838 19.2709 30.6386 18.8631 30.6908C18.4553 30.745 18.2852 30.6754 17.9779 30.331C17.6687 29.9865 17.4716 29.6886 17.3208 28.9668C17.1701 28.2471 17.145 27.7033 17.2261 26.7262C17.3073 25.751 17.4252 25.097 17.7286 24.0851C18.034 23.0712 18.2698 22.4907 18.7491 21.6626C19.2284 20.8364 19.5724 20.4726 20.1271 19.9502C20.6817 19.4258 21.0354 19.3116 21.5224 19.0446C22.0075 18.7795 22.2472 18.737 22.5583 18.6228C22.8695 18.5087 23.0241 18.4796 23.0782 18.4777C23.1343 18.4738 23.0879 18.4622 22.8347 18.6073C22.5815 18.7544 22.3825 18.9014 21.8143 19.2052C21.2441 19.5071 20.8537 19.7315 19.9879 20.1243C19.1221 20.5152 18.5751 20.7261 17.4851 21.1614C16.397 21.5948 15.7728 21.7845 14.5455 22.2953C13.3183 22.808 12.6303 23.106 11.3528 23.7194C10.0753 24.3327 9.38342 24.681 8.16198 25.3602C6.94054 26.0413 6.32209 26.4128 5.2456 27.119C4.17105 27.8252 3.60671 28.22 2.78533 28.8914C1.96202 29.5609 1.57356 29.8666 1.13291 30.4703C0.692268 31.0759 0.558917 31.4145 0.582109 31.9137C0.603368 32.4129 0.738652 32.7244 1.24501 32.9682C1.7533 33.2101 2.19201 33.2004 3.11775 33.125C4.04349 33.0495 4.6774 32.916 5.87372 32.589C7.07196 32.262 7.81797 32.0105 9.10319 31.4919C10.3903 30.9753 11.1479 30.6289 12.3075 30.002C13.4671 29.3732 14.0527 29.0307 14.9012 28.3496C15.7496 27.6685 16.1361 27.3125 16.5516 26.5946C16.9652 25.8749 17.0483 25.4743 16.973 24.7545C16.8976 24.0367 16.6908 23.6961 16.1748 22.9976C15.6588 22.2991 15.2239 21.9567 14.3929 21.262C13.5599 20.5693 12.9878 20.2249 12.0176 19.5284C11.0474 18.8318 10.5005 18.4796 9.54383 17.7792C8.58717 17.0788 8.04989 16.7092 7.23817 16.0281C6.42646 15.347 6.0206 15.0142 5.48525 14.3738C4.94991 13.7333 4.76824 13.4256 4.56531 12.8278C4.36238 12.2299 4.33339 11.9358 4.46868 11.3843C4.60203 10.8309 4.7721 10.5523 5.23594 10.0647C5.69785 9.57711 6.06505 9.34686 6.78206 8.95021C7.50101 8.55161 7.96872 8.3349 8.82488 8.07563C9.68105 7.81635 10.2125 7.73701 11.061 7.65381C11.9113 7.56868 12.381 7.63253 13.0729 7.65768C13.7667 7.68284 14.0624 7.7641 14.5243 7.77958C14.9843 7.79506 15.1968 7.80667 15.3785 7.73121C15.5621 7.65768 15.593 7.54352 15.4384 7.40615Z" fill="black" stroke="black"/>
<path id="Vector_2" d="M33.2849 9.75687C33.2211 9.8807 33.2308 10.0181 33.3004 10.1264C33.3699 10.2348 33.4917 10.3064 33.6309 10.3006C33.77 10.2928 33.9246 10.2193 33.9981 10.0935C34.0696 9.96777 34.0715 9.78976 33.9942 9.67367C33.9169 9.55757 33.7545 9.49372 33.6115 9.51114C33.4704 9.52662 33.3468 9.63304 33.2849 9.75687Z" fill="black" stroke="black"/>
<path id="Vector_3" d="M43.1317 8.00786C43.0718 8.12976 43.0989 8.2091 43.1201 8.52642C43.1414 8.84375 43.1414 8.98499 43.238 9.59836C43.3327 10.2137 43.4738 10.6084 43.5994 11.5991C43.725 12.5897 43.7753 13.2089 43.8681 14.5517C43.9608 15.8946 43.9917 16.7111 44.0652 18.3132C44.1367 19.9134 44.1773 20.8963 44.2275 22.5603C44.2797 24.2263 44.2816 25.1473 44.3184 26.6391C44.357 28.1329 44.3667 28.8971 44.4169 30.0213C44.4672 31.1474 44.4305 31.6641 44.5735 32.2639C44.7146 32.8657 44.8885 33.0475 45.1281 33.0262C45.3678 33.0069 45.5417 32.8037 45.7698 32.1652C45.9978 31.5267 46.0191 30.9907 46.2665 29.8336C46.5158 28.6785 46.6627 27.8136 47.0106 26.3856C47.3584 24.9596 47.5826 24.0463 48.0059 22.6977C48.4291 21.3491 48.6881 20.6506 49.1268 19.6463C49.5636 18.6421 49.8767 18.1894 50.1917 17.6785C50.5067 17.1658 50.5937 17.0613 50.7019 17.0884C50.8102 17.1135 50.7232 17.3225 50.7348 17.8082C50.7444 18.2919 50.7773 18.6905 50.7522 19.507C50.7251 20.3255 50.7135 20.9176 50.6053 21.8966C50.4971 22.8757 50.3734 23.4717 50.211 24.4024C50.0487 25.333 49.9095 25.8226 49.7955 26.5482C49.6815 27.2738 49.6042 27.593 49.6448 28.0342C49.6853 28.4773 49.7704 28.6147 49.9984 28.7578C50.2265 28.901 50.4294 28.901 50.785 28.7462C51.1387 28.5914 51.3629 28.4231 51.7688 27.9839C52.1765 27.5446 52.3408 27.1519 52.8163 26.554C53.2917 25.9542 53.6106 25.5439 54.1459 24.9906C54.6813 24.4372 55.0388 24.1218 55.4968 23.7851C55.9549 23.4484 56.1346 23.3188 56.438 23.3072C56.7415 23.2956 56.8111 23.3962 57.0159 23.7251C57.2208 24.0521 57.2749 24.3501 57.4643 24.9422C57.6537 25.5362 57.731 25.9909 57.9648 26.6894C58.1987 27.3879 58.2992 27.8562 58.6335 28.4347C58.9698 29.0152 59.1766 29.3538 59.6443 29.5898C60.1101 29.8259 60.4387 29.8549 60.9682 29.6131C61.4997 29.3731 61.7857 29.0307 62.294 28.3844C62.8023 27.7401 63.0844 27.2563 63.5096 26.3856C63.9348 25.5149 64.1629 24.9422 64.4199 24.0328C64.675 23.1214 64.8084 22.6029 64.7929 21.8328C64.7794 21.0627 64.6982 20.6486 64.3484 20.1823C63.9967 19.716 63.6353 19.4974 63.0439 19.4993C62.4525 19.5012 62.0775 19.7295 61.3934 20.192C60.7073 20.6544 60.2666 21.0646 59.6192 21.8134C58.9737 22.5642 58.5949 23.0769 58.1581 23.9418C57.7213 24.8068 57.5822 25.3582 57.4372 26.138C57.2923 26.9197 57.2401 27.3144 57.4334 27.8446C57.6286 28.3728 57.9185 28.6243 58.4094 28.7849C58.9022 28.9455 59.2636 28.9126 59.8898 28.6495C60.516 28.3863 60.8986 28.0516 61.5403 27.4692C62.18 26.8848 62.551 26.3818 63.0903 25.7336C63.6295 25.0854 63.9348 24.6829 64.2363 24.2301C64.5397 23.7793 64.5436 23.5162 64.6055 23.4755C64.6654 23.433 64.5475 23.58 64.5417 24.025C64.5359 24.4701 64.5262 24.9151 64.5726 25.7007C64.617 26.4843 64.6093 27.0919 64.7717 27.951C64.934 28.8081 65.0693 29.3306 65.3785 29.9904C65.6897 30.6521 65.8424 30.9965 66.3197 31.25C66.7971 31.5054 67.1662 31.5693 67.7692 31.2635C68.3722 30.9598 68.6892 30.6057 69.3366 29.7272C69.984 28.8488 70.3164 28.2315 71.0083 26.8732C71.7002 25.5169 72.1119 24.652 72.7999 22.9434C73.486 21.233 73.8262 20.1456 74.4465 18.3287C75.0669 16.5099 75.3877 15.4786 75.898 13.8532C76.4082 12.2279 76.6671 11.3495 76.9996 10.204C77.332 9.05852 77.4963 8.55351 77.562 8.12589C77.6277 7.69634 77.446 7.65378 77.3281 8.05817C77.2122 8.46257 77.131 8.97339 76.9764 10.1498C76.8237 11.3243 76.7135 12.2298 76.5609 13.9326C76.4082 15.6353 76.3463 16.7517 76.213 18.6673C76.0796 20.5809 76.0004 21.6993 75.8941 23.5065C75.7859 25.3137 75.7472 26.285 75.6796 27.7052C75.6139 29.1255 75.5617 29.7737 75.5636 30.6057C75.5636 31.4377 75.5771 31.695 75.6854 31.8653C75.7917 32.0336 76.0294 31.9059 76.1028 31.4532C76.1763 31.0004 76.1318 30.4838 76.0506 29.6034C75.9714 28.723 75.8477 28.0555 75.7047 27.0532C75.5617 26.049 75.4728 25.4472 75.3355 24.5862C75.1983 23.7271 75.1616 23.2937 75.0167 22.7557C74.8737 22.2178 74.7036 22.0379 74.6185 21.8947C74.5316 21.7496 74.4349 21.9083 74.5895 22.034C74.7442 22.1617 74.9026 22.4075 75.3897 22.5255C75.8786 22.6455 76.271 22.6397 77.0286 22.628C77.7842 22.6184 78.3428 22.5681 79.1738 22.4713C80.0048 22.3765 80.4841 22.2914 81.1799 22.1501C81.8757 22.0069 82.3704 21.9005 82.6545 21.7573C82.9386 21.6122 82.9135 21.471 82.6004 21.4265C82.2854 21.3839 81.7829 21.4652 81.0852 21.5348C80.3875 21.6064 79.9217 21.7302 79.112 21.7825C78.3003 21.8347 77.7533 21.8251 77.0363 21.7999C76.3193 21.7728 76.0004 21.6799 75.525 21.6509C75.0495 21.6219 74.9065 21.6006 74.6611 21.6528C74.4137 21.7051 74.3615 21.6606 74.2958 21.9121C74.2301 22.1617 74.2417 22.3494 74.3344 22.9047C74.4291 23.4581 74.6127 23.8374 74.7654 24.6849C74.9181 25.5304 74.9703 26.138 75.0959 27.1344C75.2235 28.1329 75.2988 28.8043 75.3974 29.6711C75.496 30.536 75.4979 31.0275 75.5887 31.4628C75.6796 31.8982 75.7743 32.0201 75.8516 31.8498C75.927 31.6796 75.9463 31.4377 75.9753 30.6115C76.0023 29.7853 75.954 29.1351 75.9927 27.7169C76.0313 26.2986 76.0661 25.3292 76.1666 23.522C76.2671 21.7167 76.3463 20.5983 76.4971 18.6866C76.6478 16.7769 76.7348 15.6643 76.9165 13.9674C77.0981 12.2705 77.2508 11.3804 77.4054 10.2059C77.56 9.03143 77.7262 8.53223 77.6915 8.093C77.6547 7.65571 77.4363 7.61315 77.2295 8.01561C77.0228 8.41807 76.9764 8.95597 76.6556 10.1053C76.3367 11.2566 76.1202 12.1428 75.6274 13.77C75.1365 15.3973 74.8137 16.4286 74.1934 18.2416C73.5749 20.0546 73.2309 21.1401 72.5293 22.8331C71.8297 24.5262 71.4045 25.3853 70.6933 26.7088C69.9821 28.0322 69.611 28.6379 68.9733 29.4505C68.3355 30.2632 67.9837 30.4993 67.5064 30.7682C67.029 31.0372 66.8918 31.0043 66.5864 30.7972C66.2811 30.5902 66.2076 30.327 65.9815 29.733C65.7554 29.139 65.5911 28.6456 65.4558 27.8291C65.3225 27.0125 65.363 26.4321 65.3089 25.6523C65.2568 24.8725 65.3341 24.4159 65.191 23.9302C65.048 23.4446 64.9031 23.255 64.5997 23.2221C64.2962 23.1892 64.0798 23.3517 63.6739 23.7696C63.2681 24.1856 63.0844 24.6636 62.5684 25.306C62.0524 25.9464 61.6871 26.4359 61.0938 26.9797C60.5005 27.5234 60.1101 27.7652 59.6037 28.0226C59.0974 28.2799 58.8809 28.336 58.5582 28.2644C58.2373 28.1928 58.1021 28.0651 57.99 27.6607C57.8779 27.2583 57.8721 26.939 58.0016 26.2444C58.133 25.5498 58.2354 24.9983 58.6451 24.1876C59.0529 23.3769 59.4279 22.8854 60.0463 22.1869C60.6648 21.4884 61.1325 21.113 61.7355 20.6951C62.3404 20.2771 62.638 20.1339 63.0651 20.0972C63.4942 20.0624 63.6488 20.1688 63.8788 20.5171C64.1068 20.8634 64.2112 21.1653 64.2112 21.8386C64.2131 22.5119 64.13 23.0228 63.8865 23.8799C63.6411 24.7371 63.4053 25.3021 62.9878 26.1244C62.5704 26.9468 62.2573 27.4073 61.7954 27.9897C61.3335 28.5721 61.0494 28.8198 60.6764 29.0384C60.3034 29.259 60.2048 29.2803 59.9304 29.0906C59.6559 28.8991 59.5496 28.6108 59.3003 28.0826C59.0529 27.5543 58.9099 27.1306 58.6877 26.4514C58.4673 25.7723 58.4287 25.3118 58.1948 24.6868C57.961 24.0637 57.8682 23.7155 57.5184 23.3304C57.1686 22.9473 56.9309 22.7944 56.4477 22.7674C55.9646 22.7403 55.6611 22.8486 55.1007 23.1969C54.5421 23.5452 54.2271 23.9322 53.6531 24.5068C53.081 25.0796 52.7544 25.4917 52.2403 26.0664C51.7282 26.641 51.4499 26.9468 51.0885 27.3821C50.7251 27.8175 50.613 28.0129 50.4275 28.2412C50.24 28.4695 50.1975 28.5643 50.1569 28.5237C50.1163 28.4831 50.1743 28.4173 50.2207 28.04C50.269 27.6627 50.2903 27.3492 50.3966 26.6391C50.5009 25.9309 50.5879 25.4279 50.7444 24.4933C50.901 23.5587 51.0421 22.9589 51.1754 21.9663C51.3069 20.9737 51.3687 20.3835 51.4073 19.5341C51.4479 18.6847 51.504 18.2571 51.3726 17.7192C51.2431 17.1813 51.073 16.9104 50.7541 16.8446C50.4352 16.7807 50.1801 16.8659 49.7801 17.3941C49.38 17.9223 49.179 18.4506 48.7538 19.4896C48.3286 20.5267 48.0812 21.2291 47.6561 22.5874C47.2289 23.9477 46.9951 24.8609 46.6221 26.287C46.2491 27.7149 46.0694 28.5798 45.791 29.7253C45.5108 30.8688 45.362 31.3758 45.2248 32.0065C45.0856 32.6393 45.132 32.8463 45.0992 32.8811C45.0663 32.916 45.1166 32.7573 45.0566 32.1807C44.9967 31.6041 44.8808 31.1087 44.7957 29.9981C44.7126 28.8894 44.6875 28.1193 44.6353 26.6294C44.5831 25.1415 44.5812 24.2185 44.531 22.5526C44.4826 20.8866 44.4459 19.9037 44.3918 18.2997C44.3377 16.6956 44.3145 15.8791 44.2623 14.5304C44.2121 13.1799 44.1869 12.5607 44.1367 11.5526C44.0864 10.5445 44.0903 10.1227 44.0111 9.49001C43.9338 8.85729 43.8642 8.7025 43.7444 8.38711C43.6265 8.07365 43.5414 7.99239 43.4177 7.91692C43.296 7.84146 43.1916 7.8879 43.1317 8.00786Z" fill="black" stroke="black"/>
<path id="Vector_4" d="M112.721 10.8192C112.682 10.916 112.686 10.8657 112.732 11.1907C112.779 11.5139 112.831 11.6725 112.955 12.4407C113.078 13.2069 113.215 13.7119 113.353 15.0277C113.49 16.3415 113.546 17.2199 113.643 19.0174C113.737 20.815 113.755 21.9217 113.83 24.0172C113.905 26.1128 113.975 27.3975 114.019 29.495C114.064 31.5924 114.043 32.7921 114.05 34.5006C114.056 36.2111 114.052 37.0953 114.054 38.0434C114.054 38.9896 114.021 38.9954 114.05 39.2353C114.081 39.4752 114.143 39.483 114.203 39.245C114.263 39.007 114.323 38.9954 114.348 38.0473C114.373 37.0972 114.344 36.2111 114.327 34.4987C114.309 32.7882 114.311 31.5885 114.263 29.4892C114.213 27.3917 114.145 26.105 114.083 24.0076C114.019 21.9121 114.008 20.8072 113.946 19.0039C113.882 17.2006 113.842 16.324 113.77 14.9928C113.699 13.6635 113.683 13.1431 113.588 12.3517C113.496 11.5584 113.434 11.3629 113.302 11.034C113.169 10.7051 113.043 10.7476 112.927 10.7051C112.812 10.6625 112.759 10.7225 112.721 10.8192Z" fill="black" stroke="black"/>
<path id="Vector_5" d="M110.301 9.78803C110.465 9.47264 110.49 8.91926 110.773 8.12401C111.057 7.3307 111.219 6.74249 111.716 5.81373C112.214 4.88691 112.524 4.27741 113.26 3.48603C113.996 2.69466 114.46 2.3425 115.395 1.8549C116.333 1.36731 116.866 1.17188 117.945 1.04611C119.023 0.920343 119.696 0.930018 120.788 1.22799C121.881 1.52597 122.488 1.79105 123.408 2.53793C124.33 3.2848 124.815 3.83432 125.393 4.96237C125.971 6.09042 126.18 6.83149 126.301 8.17626C126.425 9.51908 126.348 10.2718 126.008 11.6804C125.669 13.0909 125.32 13.8939 124.608 15.2251C123.895 16.5563 123.362 17.2936 122.446 18.3384C121.532 19.3852 120.931 19.8496 120.03 20.4513C119.129 21.0511 118.615 21.2369 117.943 21.3452C117.272 21.4555 117.021 21.2137 116.673 20.997C116.325 20.7822 116.31 20.5635 116.203 20.2675C116.099 19.9715 116.219 19.6696 116.145 19.5168C116.072 19.3639 115.927 19.3233 115.84 19.5052C115.753 19.6851 115.598 20.0314 115.709 20.4223C115.819 20.8151 115.927 21.1866 116.391 21.4633C116.853 21.74 117.251 21.947 118.022 21.8058C118.793 21.6664 119.309 21.413 120.244 20.7648C121.178 20.1146 121.769 19.6348 122.697 18.557C123.625 17.4793 124.16 16.7324 124.883 15.3722C125.608 14.0119 125.963 13.1993 126.313 11.7539C126.663 10.3085 126.752 9.5365 126.63 8.14723C126.506 6.75603 126.3 5.98207 125.702 4.80371C125.105 3.62535 124.603 3.04294 123.64 2.2535C122.678 1.46599 122.038 1.17769 120.89 0.858426C119.742 0.539166 119.037 0.529493 117.9 0.657197C116.764 0.782966 116.203 0.989999 115.21 1.49501C114.218 2.00002 113.722 2.36378 112.937 3.18225C112.154 4.00072 111.822 4.62763 111.294 5.58348C110.767 6.53932 110.564 7.13721 110.297 7.96148C110.028 8.78575 109.951 9.33914 109.951 9.7029C109.953 10.0686 110.137 10.1034 110.301 9.78803Z" fill="black" stroke="black"/>
<path id="Vector_6" d="M131.108 25.836C131.166 25.7103 131.156 25.6251 131.114 25.3426C131.071 25.0621 131.056 24.8105 130.893 24.4255C130.729 24.0404 130.565 23.816 130.296 23.4174C130.029 23.0188 129.927 22.7344 129.552 22.4325C129.175 22.1326 128.905 21.9894 128.418 21.914C127.933 21.8404 127.631 21.8308 127.123 22.061C126.614 22.2913 126.338 22.4886 125.878 23.0672C125.418 23.6457 125.188 24.0636 124.823 24.9556C124.458 25.8496 124.27 26.4533 124.052 27.5349C123.833 28.6146 123.748 29.2879 123.729 30.3598C123.71 31.4318 123.758 32.0374 123.959 32.8926C124.16 33.7459 124.291 34.189 124.73 34.6341C125.171 35.0772 125.552 35.2165 126.156 35.1139C126.761 35.0094 127.13 34.7521 127.755 34.1194C128.379 33.4867 128.68 32.97 129.276 31.9484C129.871 30.9248 130.192 30.1954 130.731 29.0054C131.27 27.8135 131.56 27.084 131.972 25.9947C132.383 24.9053 132.625 24.2649 132.787 23.5567C132.95 22.8485 132.894 22.537 132.78 22.4557C132.664 22.3745 132.403 22.5718 132.21 23.1523C132.014 23.7308 131.927 24.3307 131.808 25.3542C131.69 26.3778 131.599 27.1305 131.614 28.2721C131.632 29.4137 131.666 30.1141 131.891 31.0622C132.113 32.0103 132.266 32.494 132.731 33.0107C133.195 33.5273 133.555 33.6898 134.216 33.6453C134.875 33.6008 135.304 33.3802 136.034 32.7882C136.763 32.1961 137.153 31.6969 137.863 30.6868C138.57 29.6749 138.953 28.9009 139.573 27.7322C140.193 26.5616 140.53 25.7876 140.966 24.8395C141.403 23.8914 141.622 23.3864 141.759 22.9878C141.898 22.5892 141.739 22.5641 141.66 22.8466C141.581 23.1271 141.471 23.5722 141.365 24.3965C141.26 25.2207 141.15 25.9482 141.133 26.9679C141.117 27.9876 141.133 28.6281 141.281 29.4949C141.43 30.3618 141.521 30.7952 141.875 31.3002C142.23 31.8052 142.518 31.9697 143.056 32.02C143.593 32.0703 143.947 31.9426 144.559 31.5498C145.17 31.157 145.495 30.7991 146.115 30.058C146.735 29.3169 147.07 28.7577 147.659 27.8425C148.251 26.9292 148.585 26.283 149.066 25.4839C149.547 24.6867 149.818 24.2629 150.067 23.8508C150.317 23.4406 150.255 23.3148 150.311 23.4271C150.369 23.5393 150.27 23.8102 150.351 24.4119C150.433 25.0117 150.521 25.5458 150.717 26.43C150.912 27.3143 151.012 27.9219 151.331 28.8332C151.65 29.7445 151.826 30.2534 152.307 30.9906C152.79 31.7259 153.078 32.0955 153.741 32.5153C154.406 32.9333 154.814 33.1016 155.626 33.0842C156.437 33.0687 156.922 32.941 157.798 32.4302C158.675 31.9213 159.118 31.4821 160.009 30.5359C160.9 29.5897 161.395 28.9686 162.251 27.7013C163.109 26.4339 163.561 25.6425 164.294 24.1972C165.024 22.7537 165.351 21.9043 165.909 20.4783C166.47 19.0542 166.75 18.2686 167.092 17.0709C167.434 15.8712 167.573 15.314 167.62 14.482C167.668 13.65 167.594 13.2707 167.33 12.9089C167.065 12.5451 166.756 12.4484 166.296 12.669C165.836 12.8895 165.53 13.2088 165.03 14.0137C164.529 14.8186 164.257 15.4185 163.793 16.6936C163.327 17.9706 163.051 18.8123 162.705 20.3951C162.357 21.9759 162.166 22.9414 162.057 24.5996C161.949 26.2578 161.943 27.1711 162.166 28.6803C162.39 30.1915 162.581 30.9422 163.175 32.1516C163.766 33.3589 164.176 33.9181 165.13 34.7211C166.085 35.526 166.736 35.8376 167.946 36.1742C169.158 36.509 169.885 36.5496 171.183 36.3987C172.482 36.2478 173.251 35.8917 174.438 35.4196C175.627 34.9456 176.264 34.5431 177.122 34.0362C177.981 33.5292 178.282 33.2777 178.732 32.8849C179.183 32.494 179.274 32.2677 179.372 32.0761C179.471 31.8846 179.415 31.84 179.227 31.9271C179.038 32.0123 178.897 32.1632 178.431 32.5095C177.963 32.8539 177.718 33.1403 176.891 33.6511C176.063 34.1619 175.443 34.5837 174.293 35.0617C173.143 35.5415 172.393 35.8898 171.141 36.0465C169.89 36.2033 169.197 36.1588 168.037 35.8434C166.877 35.528 166.259 35.2358 165.341 34.4696C164.423 33.7034 164.027 33.1809 163.451 32.0142C162.875 30.8474 162.68 30.116 162.461 28.6378C162.241 27.1576 162.245 26.254 162.359 24.619C162.473 22.9859 162.666 22.0242 163.03 20.4686C163.395 18.9129 163.692 18.077 164.181 16.8426C164.67 15.6081 165.001 15.0431 165.472 14.2924C165.946 13.5397 166.24 13.3249 166.545 13.0888C166.852 12.8508 166.879 12.8334 167.005 13.1063C167.131 13.381 167.223 13.6809 167.171 14.4549C167.121 15.2288 167.059 15.7938 166.748 16.9761C166.437 18.1583 166.164 18.9477 165.617 20.3641C165.07 21.7805 164.746 22.6279 164.017 24.0578C163.289 25.4858 162.832 26.2694 161.974 27.5117C161.116 28.7539 160.608 29.3634 159.729 30.2689C158.849 31.1744 158.397 31.575 157.574 32.0374C156.752 32.4998 156.329 32.5734 155.618 32.5792C154.909 32.5869 154.597 32.4476 154.023 32.0742C153.451 31.6988 153.183 31.3873 152.752 30.7043C152.321 30.0193 152.149 29.5356 151.87 28.6533C151.592 27.7729 151.53 27.173 151.36 26.2965C151.19 25.42 151.2 24.884 151.022 24.2687C150.846 23.6534 150.757 23.3748 150.475 23.2181C150.191 23.0633 149.984 23.0981 149.607 23.4928C149.23 23.8895 149.066 24.3868 148.589 25.1994C148.113 26.014 147.804 26.6642 147.224 27.562C146.645 28.4617 146.291 28.9996 145.69 29.6942C145.087 30.3889 144.735 30.6733 144.217 31.0332C143.697 31.3931 143.459 31.5034 143.092 31.4898C142.723 31.4782 142.625 31.3911 142.377 30.9732C142.132 30.5553 141.981 30.1992 141.861 29.4021C141.741 28.6029 141.753 27.9722 141.778 26.9815C141.805 25.9927 141.948 25.2846 141.991 24.4526C142.033 23.6205 142.112 23.1581 141.991 22.8234C141.869 22.4886 141.676 22.4112 141.384 22.775C141.092 23.1368 140.964 23.6844 140.528 24.6364C140.091 25.5884 139.803 26.3759 139.198 27.5329C138.591 28.6919 138.193 29.4543 137.497 30.4276C136.803 31.4028 136.388 31.8652 135.723 32.4031C135.058 32.9429 134.693 33.0707 134.171 33.1229C133.651 33.1771 133.479 33.1074 133.12 32.674C132.76 32.2386 132.573 31.8323 132.378 30.95C132.181 30.0696 132.14 29.373 132.142 28.2682C132.142 27.1634 132.252 26.4223 132.382 25.4258C132.511 24.4274 132.718 23.8721 132.785 23.28C132.853 22.6879 132.82 22.4383 132.722 22.4654C132.623 22.4925 132.526 22.7402 132.293 23.4154C132.061 24.0907 131.947 24.7583 131.558 25.8418C131.17 26.9254 130.886 27.6568 130.35 28.8313C129.815 30.0038 129.471 30.7275 128.876 31.7104C128.282 32.6933 127.942 33.1771 127.378 33.7459C126.812 34.3148 126.497 34.456 126.05 34.5567C125.602 34.6573 125.455 34.605 125.138 34.2471C124.819 33.8911 124.645 33.5486 124.458 32.7727C124.272 31.9968 124.191 31.395 124.206 30.3676C124.22 29.3401 124.305 28.6726 124.531 27.6355C124.757 26.5964 124.962 26.0044 125.335 25.1762C125.708 24.35 125.981 23.9862 126.4 23.4986C126.819 23.013 127.053 22.9182 127.434 22.744C127.815 22.5699 127.989 22.5718 128.302 22.6279C128.615 22.6841 128.771 22.7653 128.999 23.0265C129.227 23.2877 129.245 23.5644 129.438 23.934C129.633 24.3055 129.774 24.5396 129.97 24.8802C130.165 25.2227 130.24 25.4258 130.412 25.6445C130.584 25.8631 130.689 25.9386 130.828 25.9773C130.967 26.016 131.052 25.9637 131.108 25.836Z" fill="black" stroke="black"/>
</g>
<defs>
<clipPath id="clip0_34_893">
<rect width="180" height="40" fill="white"/>
</clipPath>
</defs>
</svg>
