<svg width="16" height="17" viewBox="0 0 16 17" fill="none" xmlns="http://www.w3.org/2000/svg">
<path d="M12.7343 3.42891C12.9693 3.56264 13.235 3.63286 13.5053 3.63266C14.369 3.63266 15.0717 2.93 15.0717 2.06634C15.0717 1.20266 14.369 0.5 13.5053 0.5C12.6417 0.5 11.939 1.20266 11.939 2.06634C11.9388 2.29903 11.9907 2.52881 12.091 2.73878L10.4002 4.01925C10.142 3.84458 9.8374 3.75141 9.52569 3.75178C9.22142 3.75152 8.92375 3.84042 8.66947 4.0075L7.01178 2.65116C7.07836 2.47491 7.11242 2.28806 7.11231 2.09966C7.11231 1.236 6.40966 0.533344 5.546 0.533344C4.68234 0.533344 3.97969 1.236 3.97969 2.09966C3.97969 2.31856 4.025 2.52706 4.10647 2.71647L1.94097 4.99456C1.81838 4.96429 1.69258 4.94897 1.56631 4.94894C0.702656 4.94894 0 5.65159 0 6.51525C0 7.37891 0.702656 8.08156 1.56631 8.08156C2.42997 8.08156 3.13262 7.37891 3.13262 6.51525C3.13262 6.12759 2.99075 5.77266 2.75659 5.49884L4.72219 3.43106C4.96941 3.58489 5.25483 3.66629 5.546 3.666C5.86271 3.6663 6.17199 3.57002 6.43256 3.39L8.07334 4.7325C7.99797 4.91853 7.95926 5.11737 7.95934 5.31809C7.95934 6.18175 8.662 6.88441 9.52566 6.88441C10.3893 6.88441 11.092 6.18175 11.092 5.31809C11.092 5.12477 11.0561 4.93311 10.986 4.75294L12.7343 3.42891ZM13.5053 1.43856C13.8515 1.43856 14.1331 1.72016 14.1331 2.06634C14.1331 2.41247 13.8515 2.69406 13.5053 2.69406C13.1592 2.69406 12.8776 2.41247 12.8776 2.06634C12.8776 1.72019 13.1592 1.43856 13.5053 1.43856ZM1.56631 7.143C1.22019 7.143 0.938562 6.86141 0.938562 6.51525C0.938562 6.16909 1.22016 5.8875 1.56631 5.8875C1.91244 5.8875 2.19406 6.16909 2.19406 6.51525C2.19406 6.86141 1.91244 7.143 1.56631 7.143ZM5.546 2.72741C5.19987 2.72741 4.91825 2.44581 4.91825 2.09966C4.91825 1.7535 5.19984 1.47194 5.546 1.47194C5.89216 1.47194 6.17375 1.75353 6.17375 2.09966C6.17375 2.44578 5.89212 2.72741 5.546 2.72741ZM9.52569 5.94578C9.17956 5.94578 8.89794 5.66419 8.89794 5.31806C8.89794 4.97194 9.17953 4.69031 9.52569 4.69031C9.87184 4.69031 10.1534 4.97191 10.1534 5.31806C10.1534 5.66422 9.87181 5.94578 9.52569 5.94578ZM13.4781 6.55106C12.634 6.55106 11.9472 7.23787 11.9472 8.08203V16.5H15.0091V8.08203C15.0091 7.23787 14.3223 6.55106 13.4781 6.55106ZM14.0705 15.5614H12.8857V8.08203C12.8857 7.75541 13.1515 7.48966 13.4781 7.48966C13.8047 7.48966 14.0705 7.75541 14.0705 8.08203L14.0705 15.5614ZM9.52569 10.3857C8.68153 10.3857 7.99472 11.0725 7.99472 11.9167V16.5H11.0567V11.9167C11.0567 11.0725 10.3699 10.3857 9.52569 10.3857ZM10.1181 15.5614H8.93328V11.9167C8.93328 11.59 9.19903 11.3243 9.52566 11.3243C9.85231 11.3243 10.1181 11.59 10.1181 11.9167L10.1181 15.5614ZM5.52153 7.80256C4.67734 7.80256 3.99053 8.48934 3.99053 9.33356V16.5H7.05253V9.33356C7.05253 8.48938 6.36575 7.80256 5.52153 7.80256ZM6.11397 15.5614H4.92912V9.33356C4.92912 9.00691 5.19488 8.74116 5.52153 8.74116C5.84819 8.74116 6.11394 9.00691 6.11394 9.33356V15.5614H6.11397ZM1.56909 11.7915C0.724906 11.7915 0.0380938 12.4782 0.0380938 13.3224V16.5H3.10006V13.3224C3.10006 12.4782 2.41325 11.7915 1.56909 11.7915ZM2.16147 15.5614H0.976687V13.3224C0.976687 12.9958 1.24244 12.73 1.56909 12.73C1.89572 12.73 2.16147 12.9958 2.16147 13.3224V15.5614Z" fill="#FA5503"/>
</svg>
