<svg width="16" height="16" viewBox="0 0 16 16" fill="none" xmlns="http://www.w3.org/2000/svg">
<path d="M0.8 16H9.128C9.34017 16 9.54366 15.9157 9.69368 15.7657C9.84371 15.6157 9.928 15.4122 9.928 15.2C9.928 14.9878 9.84371 14.7843 9.69368 14.6343C9.54366 14.4843 9.34017 14.4 9.128 14.4H1.6V13.6C1.60127 12.5395 2.02311 11.5228 2.77298 10.773C3.52285 10.0231 4.53952 9.60127 5.6 9.6H8.8C9.66583 9.59785 10.5086 9.87878 11.2 10.4C11.3697 10.5273 11.5831 10.582 11.7931 10.552C12.0032 10.522 12.1927 10.4097 12.32 10.24C12.4473 10.0703 12.502 9.8569 12.472 9.64686C12.442 9.43682 12.3297 9.2473 12.16 9.12C11.192 8.39039 10.0121 7.99709 8.8 8H5.6C4.11531 8.00169 2.69191 8.59224 1.64207 9.64207C0.592236 10.6919 0.00169389 12.1153 0 13.6V15.2C0 15.4122 0.0842854 15.6157 0.234315 15.7657C0.384344 15.9157 0.587827 16 0.8 16ZM10.8 3.6C10.8 2.88799 10.5889 2.19197 10.1933 1.59995C9.79772 1.00793 9.23547 0.546511 8.57766 0.274035C7.91985 0.00155981 7.19601 -0.0697322 6.49767 0.0691746C5.79934 0.208081 5.15788 0.550948 4.65442 1.05442C4.15095 1.55789 3.80808 2.19934 3.66917 2.89768C3.53027 3.59601 3.60156 4.31985 3.87403 4.97766C4.14651 5.63548 4.60793 6.19772 5.19995 6.59329C5.79196 6.98886 6.48799 7.2 7.2 7.2C8.15445 7.19894 9.06951 6.81932 9.74441 6.14442C10.4193 5.46951 10.7989 4.55446 10.8 3.6ZM5.2 3.6C5.2 3.20444 5.3173 2.81776 5.53706 2.48886C5.75682 2.15996 6.06918 1.90362 6.43463 1.75224C6.80008 1.60087 7.20222 1.56126 7.59018 1.63843C7.97814 1.7156 8.33451 1.90608 8.61421 2.18579C8.89392 2.46549 9.0844 2.82186 9.16157 3.20982C9.23874 3.59778 9.19913 3.99992 9.04776 4.36537C8.89638 4.73082 8.64004 5.04318 8.31114 5.26294C7.98224 5.4827 7.59556 5.6 7.2 5.6C6.66976 5.59937 6.16142 5.38845 5.78649 5.01351C5.41155 4.63858 5.20063 4.13024 5.2 3.6Z" fill="#FA5503"/>
<path d="M14.6345 11.4344L12.8001 13.2688L11.7657 12.2344C11.6148 12.0887 11.4127 12.008 11.203 12.0099C10.9932 12.0117 10.7926 12.0958 10.6442 12.2442C10.4959 12.3925 10.4118 12.5931 10.4099 12.8029C10.4081 13.0126 10.4888 13.2147 10.6345 13.3656L12.2345 14.9656C12.3845 15.1156 12.5879 15.1998 12.8001 15.1998C13.0122 15.1998 13.2157 15.1156 13.3657 14.9656L15.7657 12.5656C15.9114 12.4147 15.992 12.2126 15.9902 12.0029C15.9884 11.7931 15.9043 11.5925 15.7559 11.4442C15.6076 11.2958 15.407 11.2117 15.1972 11.2099C14.9874 11.208 14.7854 11.2887 14.6345 11.4344Z" fill="#FA5503"/>
</svg>
