<svg width="16" height="17" viewBox="0 0 16 17" fill="none" xmlns="http://www.w3.org/2000/svg">
<path d="M1.6 7.96667H5.86667C6.29084 7.9661 6.69748 7.79735 6.99741 7.49741C7.29735 7.19748 7.4661 6.79084 7.46667 6.36667V2.1C7.4661 1.67583 7.29735 1.26919 6.99741 0.969252C6.69748 0.669317 6.29084 0.500564 5.86667 0.5H1.6C1.17583 0.500564 0.769188 0.669317 0.469252 0.969252C0.169317 1.26919 0.000564436 1.67583 0 2.1V6.36667C0.000564436 6.79084 0.169317 7.19748 0.469252 7.49741C0.769188 7.79735 1.17583 7.9661 1.6 7.96667ZM1.06667 2.1C1.06667 1.95855 1.12286 1.8229 1.22288 1.72288C1.3229 1.62286 1.45855 1.56667 1.6 1.56667H5.86667C6.00811 1.56667 6.14377 1.62286 6.24379 1.72288C6.34381 1.8229 6.4 1.95855 6.4 2.1V6.36667C6.4 6.50811 6.34381 6.64377 6.24379 6.74379C6.14377 6.84381 6.00811 6.9 5.86667 6.9H1.6C1.45855 6.9 1.3229 6.84381 1.22288 6.74379C1.12286 6.64377 1.06667 6.50811 1.06667 6.36667V2.1ZM1.6 16.5H5.86667C6.29084 16.4994 6.69748 16.3307 6.99741 16.0307C7.29735 15.7308 7.4661 15.3242 7.46667 14.9V10.6333C7.4661 10.2092 7.29735 9.80252 6.99741 9.50258C6.69748 9.20265 6.29084 9.0339 5.86667 9.03333H1.6C1.17583 9.0339 0.769188 9.20265 0.469252 9.50258C0.169317 9.80252 0.000564436 10.2092 0 10.6333V14.9C0.000564436 15.3242 0.169317 15.7308 0.469252 16.0307C0.769188 16.3307 1.17583 16.4994 1.6 16.5ZM1.06667 10.6333C1.06667 10.4919 1.12286 10.3562 1.22288 10.2562C1.3229 10.1562 1.45855 10.1 1.6 10.1H5.86667C6.00811 10.1 6.14377 10.1562 6.24379 10.2562C6.34381 10.3562 6.4 10.4919 6.4 10.6333V14.9C6.4 15.0414 6.34381 15.1771 6.24379 15.2771C6.14377 15.3771 6.00811 15.4333 5.86667 15.4333H1.6C1.45855 15.4333 1.3229 15.3771 1.22288 15.2771C1.12286 15.1771 1.06667 15.0414 1.06667 14.9V10.6333ZM14.4 0.5H10.1333C9.70916 0.500564 9.30252 0.669317 9.00258 0.969252C8.70265 1.26919 8.5339 1.67583 8.53333 2.1V6.36667C8.5339 6.79084 8.70265 7.19748 9.00258 7.49741C9.30252 7.79735 9.70916 7.9661 10.1333 7.96667H14.4C14.8242 7.9661 15.2308 7.79735 15.5307 7.49741C15.8307 7.19748 15.9994 6.79084 16 6.36667V2.1C15.9994 1.67583 15.8307 1.26919 15.5307 0.969252C15.2308 0.669317 14.8242 0.500564 14.4 0.5ZM14.9333 6.36667C14.9333 6.50811 14.8771 6.64377 14.7771 6.74379C14.6771 6.84381 14.5414 6.9 14.4 6.9H10.1333C9.99188 6.9 9.85623 6.84381 9.75621 6.74379C9.65619 6.64377 9.6 6.50811 9.6 6.36667V2.1C9.6 1.95855 9.65619 1.8229 9.75621 1.72288C9.85623 1.62286 9.99188 1.56667 10.1333 1.56667H14.4C14.5414 1.56667 14.6771 1.62286 14.7771 1.72288C14.8771 1.8229 14.9333 1.95855 14.9333 2.1V6.36667ZM12.2667 9.03333C11.5283 9.03333 10.8065 9.25229 10.1925 9.66251C9.57859 10.0727 9.10008 10.6558 8.81751 11.338C8.53495 12.0202 8.46101 12.7708 8.60507 13.495C8.74912 14.2192 9.10468 14.8844 9.6268 15.4065C10.1489 15.9286 10.8141 16.2842 11.5383 16.4283C12.2625 16.5723 13.0132 16.4984 13.6953 16.2158C14.3775 15.9332 14.9606 15.4547 15.3708 14.8408C15.781 14.2269 16 13.505 16 12.7667C15.9989 11.7769 15.6052 10.8279 14.9053 10.128C14.2054 9.42816 13.2565 9.03446 12.2667 9.03333ZM12.2667 15.4333C11.7392 15.4333 11.2237 15.2769 10.7851 14.9839C10.3466 14.6909 10.0048 14.2744 9.80299 13.7872C9.60115 13.2999 9.54834 12.7637 9.65124 12.2464C9.75413 11.7291 10.0081 11.254 10.381 10.881C10.754 10.5081 11.2291 10.2541 11.7464 10.1512C12.2637 10.0483 12.7999 10.1012 13.2872 10.303C13.7744 10.5048 14.1909 10.8466 14.4839 11.2851C14.7769 11.7237 14.9333 12.2392 14.9333 12.7667C14.9325 13.4736 14.6513 14.1514 14.1513 14.6513C13.6514 15.1513 12.9736 15.4325 12.2667 15.4333Z" fill="#FA5503"/>
</svg>
