<svg width="16" height="19" viewBox="0 0 16 19" fill="none" xmlns="http://www.w3.org/2000/svg">
<path d="M4.59322 17.5H3.0339C1.91061 17.5 1 16.5894 1 15.4661V3.5339C1 2.41061 1.91061 1.5 3.0339 1.5H11.3691C12.4924 1.5 13.403 2.41061 13.403 3.5339V7.5678" stroke="#FA5503" stroke-width="1.2" stroke-miterlimit="10" stroke-linecap="round" stroke-linejoin="round"/>
<path d="M3.70801 5.56775H10.6911" stroke="#FA5503" stroke-width="1.2" stroke-miterlimit="10" stroke-linecap="round" stroke-linejoin="round"/>
<path d="M3.70801 8.27966H7.98296" stroke="#FA5503" stroke-width="1.2" stroke-miterlimit="10" stroke-linecap="round" stroke-linejoin="round"/>
<path d="M3.70801 10.9916H6.52533" stroke="#FA5503" stroke-width="1.2" stroke-miterlimit="10" stroke-linecap="round" stroke-linejoin="round"/>
<path d="M9.20337 11.431C9.20337 10.3452 10.0836 9.46489 11.1695 9.46489C12.2553 9.46489 13.1356 10.3452 13.1356 11.431C13.1356 12.5169 12.2553 13.3971 11.1695 13.3971C10.0836 13.3971 9.20337 12.5169 9.20337 11.431Z" stroke="#FA5503" stroke-width="1.2" stroke-miterlimit="10" stroke-linecap="round" stroke-linejoin="round"/>
<path d="M11.1694 13.4175C13.1318 13.4175 14.7698 14.8101 15.1546 16.6637V16.6546C15.244 17.0857 14.9187 17.5 14.4797 17.5H7.85918C7.42016 17.5 7.09487 17.0947 7.1843 16.6637C7.56911 14.8101 9.20711 13.4175 11.1694 13.4175Z" stroke="#FA5503" stroke-width="1.2" stroke-miterlimit="10" stroke-linecap="round" stroke-linejoin="round"/>
</svg>
