<svg width="44" height="36" viewBox="0 0 44 36" fill="none" xmlns="http://www.w3.org/2000/svg">
<path d="M37.5547 19.0305H33.2477C32.6615 19.0305 32.094 19.1095 31.5538 19.2549C30.4884 17.1882 28.3131 15.7682 25.8066 15.7682H18.1934C15.6869 15.7682 13.5116 17.1882 12.4462 19.2549C11.8942 19.106 11.3245 19.0306 10.7523 19.0305H6.44531C2.89137 19.0305 0 21.8835 0 25.3903V32.1841C0 34.2882 1.73482 36 3.86719 36H40.1328C42.2652 36 44 34.2882 44 32.1841V25.3903C44 21.8835 41.1086 19.0305 37.5547 19.0305ZM11.7481 22.1282V33.4562H3.86719C3.1564 33.4562 2.57812 32.8856 2.57812 32.1842V25.3904C2.57812 23.2863 4.31295 21.5745 6.44531 21.5745H10.7523C11.1023 21.5745 11.4411 21.6214 11.7637 21.7078C11.7538 21.8477 11.7486 21.9879 11.7481 22.1282ZM29.6738 33.4562H14.3262V22.1281C14.3262 20.024 16.061 18.3122 18.1934 18.3122H25.8066C27.939 18.3122 29.6738 20.024 29.6738 22.1281V33.4562ZM41.4219 32.1842C41.4219 32.8856 40.8436 33.4562 40.1328 33.4562H32.2519V22.1281C32.2514 21.9878 32.2462 21.8476 32.2363 21.7077C32.5659 21.6193 32.906 21.5745 33.2477 21.5744H37.5547C39.6871 21.5744 41.4219 23.2862 41.4219 25.3903V32.1842Z" fill="#FA5503"/>
<path d="M8.59891 7.01911C5.44079 7.01911 2.87152 9.5543 2.87152 12.6705C2.87143 15.7867 5.44079 18.3219 8.59891 18.3219C11.7569 18.3219 14.3263 15.7867 14.3263 12.6705C14.3263 9.5543 11.757 7.01911 8.59891 7.01911ZM8.59882 15.778C6.86228 15.778 5.44955 14.384 5.44955 12.6705C5.44955 10.957 6.86228 9.56303 8.59882 9.56303C10.3354 9.56303 11.7481 10.957 11.7481 12.6705C11.7481 14.384 10.3354 15.778 8.59882 15.778ZM22 0C17.7808 0 14.3483 3.38698 14.3483 7.5502C14.3483 11.7134 17.7808 15.1004 22 15.1004C26.2192 15.1004 29.6517 11.7134 29.6517 7.5502C29.6517 3.38706 26.2192 0 22 0ZM22 12.5565C19.2024 12.5565 16.9264 10.3107 16.9264 7.5502C16.9264 4.78978 19.2024 2.54392 22 2.54392C24.7976 2.54392 27.0736 4.7897 27.0736 7.5502C27.0736 10.3107 24.7976 12.5565 22 12.5565ZM35.4011 7.01911C32.2431 7.01911 29.6737 9.5543 29.6737 12.6705C29.6738 15.7867 32.2431 18.3219 35.4011 18.3219C38.5592 18.3219 41.1285 15.7867 41.1285 12.6705C41.1285 9.5543 38.5592 7.01911 35.4011 7.01911ZM35.4011 15.778C33.6646 15.778 32.2518 14.384 32.2518 12.6705C32.2519 10.957 33.6646 9.56303 35.4011 9.56303C37.1376 9.56303 38.5504 10.957 38.5504 12.6705C38.5504 14.384 37.1376 15.778 35.4011 15.778Z" fill="#FA5503"/>
</svg>
