<svg width="16" height="17" viewBox="0 0 16 17" fill="none" xmlns="http://www.w3.org/2000/svg">
<g id="Group">
<path id="Vector" d="M3.82014 6.63965C3.69198 6.63965 3.56907 6.69056 3.47845 6.78118C3.38782 6.8718 3.33691 6.99471 3.33691 7.12287C3.33691 7.25103 3.38782 7.37394 3.47845 7.46456C3.56907 7.55518 3.69198 7.60609 3.82014 7.60609H9.00134C9.1295 7.60609 9.25241 7.55518 9.34303 7.46456C9.43365 7.37394 9.48457 7.25103 9.48457 7.12287C9.48457 6.99471 9.43365 6.8718 9.34303 6.78118C9.25241 6.69056 9.1295 6.63965 9.00134 6.63965H3.82014ZM6.1498 9.38274H3.82014C3.69198 9.38274 3.56907 9.43365 3.47845 9.52427C3.38782 9.61489 3.33691 9.7378 3.33691 9.86596C3.33691 9.99412 3.38782 10.117 3.47845 10.2076C3.56907 10.2983 3.69198 10.3492 3.82014 10.3492H6.1498C6.27796 10.3492 6.40087 10.2983 6.49149 10.2076C6.58211 10.117 6.63302 9.99412 6.63302 9.86596C6.63302 9.7378 6.58211 9.61489 6.49149 9.52427C6.40087 9.43365 6.27796 9.38274 6.1498 9.38274Z" fill="#FA5503"/>
<path id="Vector_2" d="M6.07839 15.5336H2.40054C2.01971 15.5326 1.65484 15.3805 1.38606 15.1107C1.11728 14.8409 0.966552 14.4755 0.96698 14.0946V4.30671C0.966552 3.92588 1.11728 3.56045 1.38606 3.29066C1.65484 3.02087 2.01971 2.86878 2.40054 2.86779H3.39866V2.98913C3.39908 3.328 3.53393 3.65286 3.77359 3.89242C4.01326 4.13199 4.33818 4.2667 4.67705 4.26698H9.2945C9.63337 4.2667 9.95829 4.13199 10.198 3.89242C10.4376 3.65286 10.5725 3.328 10.5729 2.98913V2.86779H11.5662C12.3699 2.86779 12.9992 3.49973 12.9992 4.30671V7.06107C12.9992 7.18923 13.0501 7.31214 13.1407 7.40276C13.2313 7.49338 13.3543 7.5443 13.4824 7.5443C13.6106 7.5443 13.7335 7.49338 13.8241 7.40276C13.9147 7.31214 13.9656 7.18923 13.9656 7.06107V4.30671C13.9656 3.6697 13.713 3.05869 13.263 2.60775C12.8131 2.15681 12.2027 1.90276 11.5656 1.90134H10.5723V1.77785C10.5719 1.43898 10.4371 1.11412 10.1974 0.874556C9.95775 0.634989 9.63283 0.500284 9.29396 0.5H4.67651C4.33764 0.500284 4.01272 0.634989 3.77306 0.874556C3.53339 1.11412 3.39855 1.43898 3.39812 1.77785V1.90134H2.40054C1.76347 1.90276 1.15298 2.1568 0.702964 2.60772C0.252945 3.05865 0.000140584 3.66965 0 4.30671V14.0946C0 15.4208 1.07705 16.5 2.40054 16.5H6.07839C6.20655 16.5 6.32946 16.4491 6.42008 16.3585C6.5107 16.2678 6.56161 16.1449 6.56161 16.0168C6.56161 15.8886 6.5107 15.7657 6.42008 15.6751C6.32946 15.5845 6.20655 15.5336 6.07839 15.5336ZM4.36564 1.77785C4.36564 1.60604 4.50524 1.46644 4.67705 1.46644H9.2945C9.46631 1.46644 9.60591 1.60604 9.60591 1.77785V2.98859C9.60591 3.1604 9.46631 3.3 9.2945 3.3H4.67705C4.59446 3.3 4.51525 3.26719 4.45685 3.20879C4.39845 3.15039 4.36564 3.07118 4.36564 2.98859V1.77785Z" fill="#FA5503"/>
<path id="Vector_3" d="M14.9776 9.22913C14.3161 8.56712 13.1612 8.56658 12.4992 9.22913L8.21515 13.5132C8.07757 13.6504 7.98634 13.8273 7.95421 14.0189L7.71905 15.409C7.69427 15.5561 7.70504 15.707 7.75046 15.8491C7.79589 15.9912 7.87464 16.1204 7.98016 16.2259C8.08568 16.3313 8.2149 16.41 8.35702 16.4554C8.49915 16.5007 8.65006 16.5114 8.79717 16.4866L10.1867 16.252C10.3795 16.2192 10.5545 16.129 10.6925 15.991L14.9765 11.707C15.3046 11.3782 15.489 10.9328 15.4892 10.4683C15.4894 10.0038 15.3054 9.55819 14.9776 9.22913ZM10.0262 15.2995L8.6726 15.5695L8.89918 14.1967L11.9698 11.126L13.0817 12.238L10.0262 15.2995ZM14.2935 11.0235L13.7641 11.554L12.6527 10.4426L13.1827 9.91262C13.2554 9.83948 13.3419 9.78146 13.4372 9.74193C13.5325 9.70239 13.6347 9.68212 13.7378 9.68229C13.8932 9.68244 14.045 9.7286 14.1741 9.81495C14.3032 9.90129 14.4038 10.024 14.4633 10.1675C14.5227 10.3109 14.5383 10.4688 14.5081 10.6212C14.4779 10.7735 14.4032 10.9135 14.2935 11.0235Z" fill="#FA5503"/>
</g>
</svg>
