<svg width="72" height="71" viewBox="0 0 72 71" fill="none" xmlns="http://www.w3.org/2000/svg">
<g id="Group">
<path id="Vector" d="M66.6442 39.275H56.5084C56.3713 39.275 56.2355 39.302 56.1088 39.3545C55.9822 39.407 55.8671 39.4839 55.7701 39.5808C55.6732 39.6778 55.5963 39.7928 55.5438 39.9195C55.4914 40.0462 55.4644 40.1819 55.4644 40.319V69.956C55.4644 70.0931 55.4914 70.2289 55.5438 70.3555C55.5963 70.4822 55.6732 70.5973 55.7701 70.6942C55.8671 70.7912 55.9822 70.8681 56.1088 70.9205C56.2355 70.973 56.3713 71 56.5084 71H66.6442C66.9211 71 67.1867 70.89 67.3825 70.6942C67.5782 70.4984 67.6882 70.2329 67.6882 69.956V40.319C67.6882 40.0422 67.5782 39.7766 67.3824 39.5809C67.1866 39.3851 66.9211 39.2751 66.6442 39.275Z" fill="#A0A0A0"/>
<path id="Vector_2" d="M60.6842 39.275H56.5084C56.3713 39.275 56.2355 39.302 56.1088 39.3545C55.9822 39.407 55.8671 39.4839 55.7701 39.5808C55.6732 39.6778 55.5963 39.7928 55.5438 39.9195C55.4914 40.0462 55.4644 40.1819 55.4644 40.319V69.956C55.4644 70.0931 55.4914 70.2289 55.5438 70.3555C55.5963 70.4822 55.6732 70.5973 55.7701 70.6942C55.8671 70.7912 55.9822 70.8681 56.1088 70.9205C56.2355 70.973 56.3713 71 56.5084 71H60.6842V39.275Z" fill="#878787"/>
<path id="Vector_3" d="M70.0289 33.6689H56.5079C56.231 33.6689 55.9654 33.7789 55.7697 33.9747C55.5739 34.1705 55.4639 34.4361 55.4639 34.713V40.319C55.4639 40.5959 55.5739 40.8614 55.7697 41.0572C55.9654 41.253 56.231 41.363 56.5079 41.363H70.0289C70.3058 41.363 70.5713 41.253 70.7671 41.0572C70.9629 40.8614 71.0729 40.5959 71.0729 40.319V34.713C71.0729 34.4361 70.9629 34.1705 70.7671 33.9747C70.5713 33.7789 70.3058 33.6689 70.0289 33.6689Z" fill="#565656"/>
<path id="Vector_4" d="M60.6842 33.6689H56.5084C56.3713 33.6689 56.2355 33.696 56.1088 33.7484C55.9822 33.8009 55.8671 33.8778 55.7701 33.9747C55.6732 34.0717 55.5963 34.1868 55.5438 34.3134C55.4914 34.4401 55.4644 34.5759 55.4644 34.713V40.319C55.4644 40.4561 55.4914 40.5919 55.5438 40.7185C55.5963 40.8452 55.6732 40.9603 55.7701 41.0572C55.8671 41.1542 55.9822 41.2311 56.1088 41.2836C56.2355 41.336 56.3713 41.363 56.5084 41.363H60.6842V33.6689Z" fill="#494949"/>
<path id="Vector_5" d="M14.5649 39.275H4.42879C4.1519 39.275 3.88635 39.385 3.69055 39.5808C3.49476 39.7766 3.38477 40.0422 3.38477 40.319V69.956C3.38477 70.2329 3.49476 70.4984 3.69055 70.6942C3.88635 70.89 4.1519 71 4.42879 71H14.5646C14.8415 71 15.1071 70.89 15.3029 70.6942C15.4987 70.4984 15.6087 70.2329 15.6087 69.956V40.319C15.6087 40.182 15.5817 40.0462 15.5293 39.9195C15.4768 39.7929 15.4 39.6778 15.303 39.5808C15.2061 39.4839 15.091 39.407 14.9644 39.3545C14.8377 39.302 14.702 39.275 14.5649 39.275Z" fill="#A0A0A0"/>
<path id="Vector_6" d="M14.5651 39.275H10.3892V70.9999H14.565C14.8419 70.9999 15.1074 70.8899 15.3032 70.6941C15.499 70.4983 15.609 70.2327 15.609 69.9559V40.3189C15.609 40.0421 15.499 39.7765 15.3033 39.5808C15.1075 39.385 14.842 39.275 14.5651 39.275Z" fill="#878787"/>
<path id="Vector_7" d="M14.565 33.6689H1.04403C0.767133 33.6689 0.501581 33.7789 0.305788 33.9747C0.109995 34.1705 0 34.4361 0 34.713L0 40.319C0 40.5959 0.109995 40.8614 0.305788 41.0572C0.501581 41.253 0.767133 41.363 1.04403 41.363H14.565C14.8419 41.363 15.1074 41.253 15.3032 41.0572C15.499 40.8614 15.609 40.5959 15.609 40.319V34.713C15.6089 34.4361 15.4989 34.1706 15.3032 33.9748C15.1074 33.779 14.8419 33.669 14.565 33.6689Z" fill="#565656"/>
<path id="Vector_8" d="M14.5651 33.6689H10.3892V41.3629H14.565C14.8419 41.3629 15.1074 41.2529 15.3032 41.0571C15.499 40.8613 15.609 40.5958 15.609 40.3189V34.7128C15.609 34.436 15.499 34.1705 15.3033 33.9747C15.1075 33.7789 14.842 33.6689 14.5651 33.6689Z" fill="#494949"/>
<path id="Vector_9" d="M56.5082 18.3682H44.6666C44.5049 18.3681 44.3455 18.4057 44.2009 18.4778C44.0562 18.5499 43.9303 18.6546 43.833 18.7836C41.8413 21.426 38.8046 22.9414 35.5016 22.9414C32.1987 22.9414 29.1619 21.426 27.1702 18.7836C27.0729 18.6546 26.947 18.5499 26.8023 18.4778C26.6577 18.4057 26.4983 18.3682 26.3366 18.3682H14.565C14.2881 18.3682 14.0226 18.4782 13.8268 18.674C13.631 18.8697 13.521 19.1353 13.521 19.4122V69.9559C13.521 70.2328 13.631 70.4983 13.8268 70.6941C14.0226 70.8899 14.2881 70.9999 14.565 70.9999H56.5084C56.7853 70.9999 57.0509 70.8899 57.2467 70.6941C57.4425 70.4983 57.5525 70.2328 57.5525 69.9559V19.4122C57.5524 19.1353 57.4423 18.8698 57.2465 18.674C57.0506 18.4782 56.7851 18.3682 56.5082 18.3682Z" fill="#F9F1EF"/>
<path id="Vector_10" d="M56.5079 18.3682H52.4712V70.9998H56.5079C56.645 70.9998 56.7808 70.9728 56.9075 70.9203C57.0341 70.8678 57.1492 70.7909 57.2462 70.694C57.3431 70.597 57.42 70.4819 57.4725 70.3553C57.5249 70.2286 57.5519 70.0928 57.5519 69.9557V19.4122C57.5519 19.2751 57.5249 19.1393 57.4725 19.0127C57.42 18.886 57.3431 18.7709 57.2462 18.674C57.1492 18.577 57.0341 18.5001 56.9075 18.4476C56.7808 18.3952 56.645 18.3682 56.5079 18.3682Z" fill="#DDDBDB"/>
<path id="Vector_11" d="M25.1421 13.6901C25.1136 13.435 24.992 13.1993 24.8006 13.0282C24.6092 12.857 24.3615 12.7624 24.1048 12.7624H10.7266C10.4498 12.7624 10.1842 12.8724 9.98841 13.0682C9.79261 13.264 9.68262 13.5295 9.68262 13.8064V19.4124C9.68262 19.6893 9.79261 19.9549 9.98841 20.1507C10.1842 20.3465 10.4498 20.4565 10.7266 20.4565H26.3364C26.5304 20.4564 26.7206 20.4022 26.8856 20.3001C27.0506 20.1979 27.1839 20.0518 27.2705 19.8781C27.357 19.7044 27.3935 19.51 27.3757 19.3168C27.358 19.1235 27.2867 18.939 27.1699 18.784C26.0503 17.2982 25.35 15.539 25.1421 13.6901ZM60.3461 12.7624H46.898C46.6413 12.7624 46.3936 12.857 46.2022 13.0282C46.0108 13.1993 45.8892 13.435 45.8606 13.6901C45.6529 15.539 44.9526 17.2982 43.833 18.784C43.7162 18.939 43.6449 19.1235 43.6272 19.3168C43.6094 19.51 43.6459 19.7044 43.7325 19.8781C43.819 20.0518 43.9523 20.1979 44.1173 20.3001C44.2823 20.4022 44.4725 20.4564 44.6666 20.4565H60.3462C60.6231 20.4565 60.8887 20.3465 61.0845 20.1507C61.2803 19.9549 61.3903 19.6893 61.3903 19.4124V13.8063C61.3902 13.5294 61.2802 13.2639 61.0843 13.0681C60.8885 12.8724 60.623 12.7624 60.3461 12.7624Z" fill="#565656"/>
<path id="Vector_12" d="M27.7611 39.1024H21.9254C21.6485 39.1024 21.3829 39.2124 21.1871 39.4082C20.9913 39.604 20.8813 39.8695 20.8813 40.1464V45.9822C20.8813 46.1193 20.9084 46.2551 20.9608 46.3817C21.0133 46.5084 21.0902 46.6235 21.1871 46.7204C21.2841 46.8174 21.3992 46.8943 21.5258 46.9467C21.6525 46.9992 21.7883 47.0262 21.9254 47.0262H27.7611C27.8982 47.0262 28.034 46.9992 28.1607 46.9467C28.2873 46.8943 28.4024 46.8174 28.4994 46.7204C28.5963 46.6235 28.6732 46.5084 28.7257 46.3817C28.7782 46.2551 28.8052 46.1193 28.8052 45.9822V40.1464C28.8052 39.8695 28.6952 39.604 28.4994 39.4082C28.3036 39.2124 28.038 39.1024 27.7611 39.1024ZM38.4546 39.1024H32.6188C32.3419 39.1024 32.0764 39.2124 31.8806 39.4082C31.6848 39.604 31.5748 39.8695 31.5748 40.1464V45.9822C31.5748 46.1193 31.6018 46.2551 31.6543 46.3817C31.7067 46.5084 31.7836 46.6235 31.8806 46.7204C31.9775 46.8174 32.0926 46.8943 32.2193 46.9467C32.346 46.9992 32.4817 47.0262 32.6188 47.0262H38.4546C38.5917 47.0262 38.7275 46.9992 38.8541 46.9467C38.9808 46.8943 39.0959 46.8174 39.1928 46.7204C39.2898 46.6235 39.3667 46.5084 39.4192 46.3817C39.4716 46.2551 39.4986 46.1193 39.4986 45.9822V40.1464C39.4986 39.8695 39.3886 39.604 39.1928 39.4082C38.997 39.2124 38.7315 39.1024 38.4546 39.1024ZM49.1482 39.1024H43.3124C43.1753 39.1024 43.0396 39.1294 42.9129 39.1819C42.7862 39.2343 42.6711 39.3112 42.5742 39.4082C42.4772 39.5051 42.4003 39.6202 42.3479 39.7469C42.2954 39.8736 42.2684 40.0093 42.2684 40.1464V45.9822C42.2684 46.1193 42.2954 46.2551 42.3479 46.3817C42.4003 46.5084 42.4772 46.6235 42.5742 46.7204C42.6711 46.8174 42.7862 46.8943 42.9129 46.9467C43.0396 46.9992 43.1753 47.0262 43.3124 47.0262H49.1482C49.2853 47.0262 49.4211 46.9992 49.5477 46.9467C49.6744 46.8943 49.7895 46.8174 49.8864 46.7204C49.9834 46.6235 50.0603 46.5084 50.1127 46.3817C50.1652 46.2551 50.1922 46.1193 50.1922 45.9822V40.1464C50.1922 40.0093 50.1652 39.8735 50.1128 39.7469C50.0603 39.6202 49.9834 39.5051 49.8865 39.4081C49.7895 39.3112 49.6744 39.2343 49.5477 39.1818C49.4211 39.1294 49.2853 39.1024 49.1482 39.1024ZM27.7611 29.0004H21.9254C21.6485 29.0004 21.3829 29.1104 21.1871 29.3062C20.9913 29.502 20.8813 29.7676 20.8813 30.0445V35.8802C20.8813 36.1571 20.9913 36.4227 21.1871 36.6185C21.3829 36.8143 21.6485 36.9242 21.9254 36.9242H27.7611C28.038 36.9242 28.3036 36.8143 28.4994 36.6185C28.6952 36.4227 28.8052 36.1571 28.8052 35.8802V30.0445C28.8052 29.7676 28.6952 29.502 28.4994 29.3062C28.3036 29.1104 28.038 29.0004 27.7611 29.0004ZM38.4546 29.0004H32.6188C32.3419 29.0004 32.0764 29.1104 31.8806 29.3062C31.6848 29.502 31.5748 29.7676 31.5748 30.0445V35.8802C31.5748 36.1571 31.6848 36.4227 31.8806 36.6185C32.0764 36.8143 32.3419 36.9242 32.6188 36.9242H38.4546C38.7315 36.9242 38.997 36.8143 39.1928 36.6185C39.3886 36.4227 39.4986 36.1571 39.4986 35.8802V30.0445C39.4986 29.7676 39.3886 29.502 39.1928 29.3062C38.997 29.1104 38.7315 29.0004 38.4546 29.0004ZM49.1482 29.0004H43.3124C43.1753 29.0004 43.0396 29.0274 42.9129 29.0799C42.7862 29.1324 42.6711 29.2093 42.5742 29.3062C42.4772 29.4032 42.4003 29.5183 42.3479 29.6449C42.2954 29.7716 42.2684 29.9073 42.2684 30.0445V35.8802C42.2684 36.0173 42.2954 36.1531 42.3479 36.2798C42.4003 36.4064 42.4772 36.5215 42.5742 36.6185C42.6711 36.7154 42.7862 36.7923 42.9129 36.8448C43.0396 36.8972 43.1753 36.9242 43.3124 36.9242H49.1482C49.4251 36.9242 49.6906 36.8143 49.8864 36.6185C50.0822 36.4227 50.1922 36.1571 50.1922 35.8802V30.0445C50.1922 29.9073 50.1652 29.7716 50.1128 29.6449C50.0603 29.5182 49.9834 29.4031 49.8865 29.3062C49.7895 29.2092 49.6744 29.1323 49.5477 29.0799C49.4211 29.0274 49.2853 29.0004 49.1482 29.0004ZM47.6486 56.071H35.5367C35.3996 56.071 35.2638 56.098 35.1372 56.1504C35.0105 56.2029 34.8954 56.2798 34.7985 56.3768C34.7015 56.4737 34.6246 56.5888 34.5722 56.7155C34.5197 56.8421 34.4927 56.9779 34.4927 57.115V69.9559C34.4927 70.2328 34.6027 70.4984 34.7985 70.6941C34.9943 70.8899 35.2598 70.9999 35.5367 70.9999H47.6486C47.9255 70.9999 48.191 70.8899 48.3868 70.6941C48.5826 70.4984 48.6926 70.2328 48.6926 69.9559V57.115C48.6926 56.9779 48.6656 56.8421 48.6131 56.7155C48.5607 56.5888 48.4838 56.4737 48.3868 56.3768C48.2899 56.2798 48.1748 56.2029 48.0481 56.1504C47.9214 56.098 47.7857 56.071 47.6486 56.071Z" fill="#00C1EC"/>
<path id="Vector_13" d="M47.6484 56.0709H43.8901V70.9999H47.6484C47.7855 70.9999 47.9213 70.9729 48.0479 70.9204C48.1746 70.8679 48.2897 70.791 48.3866 70.6941C48.4836 70.5972 48.5605 70.4821 48.613 70.3554C48.6654 70.2287 48.6924 70.093 48.6924 69.9559V57.1149C48.6924 56.8381 48.5824 56.5725 48.3866 56.3767C48.1909 56.1809 47.9253 56.0709 47.6484 56.0709Z" fill="#00AADE"/>
<path id="Vector_14" d="M35.5367 56.0709H23.4249C23.2878 56.0709 23.152 56.0979 23.0254 56.1504C22.8987 56.2029 22.7836 56.2798 22.6866 56.3767C22.5897 56.4737 22.5128 56.5887 22.4603 56.7154C22.4079 56.8421 22.3809 56.9778 22.3809 57.1149V69.9559C22.3809 70.2328 22.4909 70.4983 22.6866 70.6941C22.8824 70.8899 23.148 70.9999 23.4249 70.9999H35.5367C35.8136 70.9999 36.0792 70.8899 36.275 70.6941C36.4708 70.4983 36.5808 70.2328 36.5808 69.9559V57.1149C36.5808 56.9778 36.5538 56.8421 36.5013 56.7154C36.4489 56.5887 36.372 56.4736 36.275 56.3767C36.1781 56.2797 36.063 56.2028 35.9363 56.1504C35.8096 56.0979 35.6739 56.0709 35.5367 56.0709Z" fill="#00C1EC"/>
<path id="Vector_15" d="M31.7783 56.0706H36.5806V70.9994H31.7783V56.0706Z" fill="#00AADE"/>
<path id="Vector_16" d="M35.5017 0C28.601 0 22.9868 5.61422 22.9868 12.5148C22.9868 19.4155 28.601 25.0297 35.5017 25.0297C42.4024 25.0297 48.0165 19.4156 48.0165 12.5148C48.0165 5.61408 42.4024 0 35.5017 0Z" fill="#EF3A47"/>
<path id="Vector_17" d="M35.5018 0C34.6056 0 33.7315 0.0955045 32.8882 0.27527C38.5386 1.4806 42.7894 6.51013 42.7894 12.5148C42.7894 18.5195 38.5384 23.5491 32.8882 24.7544C33.7473 24.9376 34.6233 25.0299 35.5018 25.0297C42.4025 25.0297 48.0166 19.4156 48.0166 12.5148C48.0166 5.61408 42.4025 0 35.5018 0Z" fill="#CE3043"/>
<path id="Vector_18" d="M40.0206 10.541H37.4754V7.99569C37.4754 7.9027 37.4571 7.81061 37.4216 7.72469C37.386 7.63878 37.3338 7.56071 37.2681 7.49495C37.2023 7.4292 37.1242 7.37704 37.0383 7.34146C36.9524 7.30588 36.8603 7.28758 36.7673 7.2876H34.2358C34.1428 7.28758 34.0507 7.30588 33.9648 7.34146C33.8789 7.37704 33.8008 7.4292 33.735 7.49495C33.6693 7.56071 33.6171 7.63878 33.5815 7.72469C33.546 7.81061 33.5277 7.9027 33.5277 7.99569V10.5409H30.9825C30.8895 10.5408 30.7974 10.5591 30.7115 10.5947C30.6256 10.6303 30.5475 10.6825 30.4818 10.7482C30.416 10.814 30.3639 10.892 30.3283 10.978C30.2927 11.0639 30.2744 11.156 30.2744 11.249V13.7805C30.2744 13.8735 30.2927 13.9656 30.3283 14.0515C30.3639 14.1374 30.416 14.2155 30.4818 14.2813C30.5475 14.347 30.6256 14.3992 30.7115 14.4347C30.7974 14.4703 30.8895 14.4886 30.9825 14.4886H33.5277V17.0338C33.5277 17.1268 33.546 17.2189 33.5815 17.3048C33.6171 17.3907 33.6693 17.4688 33.735 17.5345C33.8008 17.6003 33.8789 17.6524 33.9648 17.688C34.0507 17.7236 34.1428 17.7419 34.2358 17.7419H36.7673C36.8603 17.7419 36.9524 17.7236 37.0383 17.688C37.1242 17.6524 37.2023 17.6003 37.2681 17.5345C37.3338 17.4688 37.386 17.3907 37.4216 17.3048C37.4571 17.2189 37.4754 17.1268 37.4754 17.0338V14.4886H40.0206C40.1136 14.4886 40.2056 14.4703 40.2915 14.4347C40.3775 14.3991 40.4555 14.347 40.5212 14.2812C40.587 14.2155 40.6391 14.1374 40.6747 14.0515C40.7103 13.9656 40.7286 13.8735 40.7286 13.7805V11.249C40.7286 11.0612 40.654 10.8811 40.5212 10.7484C40.3884 10.6156 40.2084 10.541 40.0206 10.541Z" fill="#F9F1EF"/>
<path id="Vector_19" d="M50.0922 51.5304H20.9815C20.7046 51.5304 20.4391 51.6404 20.2433 51.8362C20.0475 52.032 19.9375 52.2975 19.9375 52.5744V57.1077C19.9375 57.3846 20.0475 57.6501 20.2433 57.8459C20.4391 58.0417 20.7046 58.1517 20.9815 58.1517H50.0922C50.2293 58.1517 50.3651 58.1247 50.4918 58.0722C50.6184 58.0198 50.7335 57.9429 50.8305 57.8459C50.9274 57.749 51.0043 57.6339 51.0568 57.5072C51.1092 57.3806 51.1362 57.2448 51.1362 57.1077V52.5744C51.1362 52.2975 51.0262 52.032 50.8304 51.8362C50.6346 51.6404 50.3691 51.5304 50.0922 51.5304Z" fill="#565656"/>
</g>
</svg>
