<svg width="20" height="17" viewBox="0 0 20 17" fill="none" xmlns="http://www.w3.org/2000/svg">
<path d="M13.9216 7.11712C15.7463 7.11712 17.2295 5.63327 17.2295 3.80927C17.2295 1.98527 15.7463 0.5 13.9216 0.5C12.0969 0.5 10.6138 1.98457 10.6138 3.80856C10.6138 5.63256 12.0976 7.11641 13.9216 7.11641V7.11712ZM15.8122 3.80927C15.8115 4.31046 15.612 4.79091 15.2576 5.1453C14.9032 5.4997 14.4228 5.69913 13.9216 5.69988C12.8792 5.69988 12.031 4.85165 12.031 3.80927C12.031 2.76689 12.8792 1.91795 13.9216 1.91795C14.4229 1.9187 14.9035 2.11823 15.2579 2.47278C15.6123 2.82733 15.8117 3.30796 15.8122 3.80927ZM13.9244 8.18006C13.2576 8.18006 12.6199 8.28706 12.0282 8.49823C11.8512 8.56122 11.7064 8.69193 11.6257 8.86163C11.5451 9.03132 11.5351 9.2261 11.598 9.40314C11.7185 9.73974 12.0657 9.91618 12.4066 9.84674C12.4392 9.83965 12.4718 9.8439 12.5044 9.83257C12.9608 9.67346 13.4411 9.59389 13.9244 9.5973C15.1291 9.5973 16.2594 10.065 17.1083 10.9132C17.5272 11.3306 17.8591 11.8269 18.085 12.3734C18.3109 12.9199 18.4262 13.5057 18.4242 14.0971C18.4242 14.3607 18.3214 14.6073 18.1358 14.7943C18.0456 14.8856 17.9383 14.9581 17.8199 15.0076C17.7016 15.0571 17.5746 15.0826 17.4463 15.0828H13.6339C13.5843 15.0828 13.5404 15.1012 13.4936 15.1111C13.3348 15.1413 13.1914 15.2255 13.0878 15.3496C12.9841 15.4736 12.9267 15.6298 12.9253 15.7914C12.9253 15.9793 12.9999 16.1596 13.1328 16.2924C13.2657 16.4253 13.446 16.5 13.6339 16.5H17.4463C18.0841 16.5 18.6843 16.2499 19.1378 15.7963C19.5913 15.3428 19.8414 14.7398 19.8414 14.0971C19.8439 13.3196 19.6921 12.5493 19.395 11.8308C19.0978 11.1123 18.6612 10.4599 18.1103 9.91122C17.5617 9.36022 16.9093 8.92351 16.1908 8.62635C15.4723 8.32919 14.702 8.1775 13.9244 8.18006ZM5.91984 7.11712C7.74383 7.11712 9.22769 5.63327 9.22769 3.80927C9.22769 1.98527 7.74383 0.5 5.91984 0.5C4.09584 0.5 2.61198 1.98527 2.61198 3.80927C2.61198 5.63327 4.09513 7.11712 5.91984 7.11712ZM5.91984 1.91795C6.96222 1.91795 7.81044 2.76689 7.81044 3.80927C7.81044 4.85165 6.96222 5.69988 5.91984 5.69988C4.87745 5.69988 4.02923 4.85165 4.02923 3.80927C4.02923 2.76689 4.87745 1.91795 5.91984 1.91795ZM2.39727 16.4972H9.4424C10.078 16.4964 10.6873 16.2436 11.1367 15.7942C11.5861 15.3448 11.8389 14.7355 11.8397 14.0999C11.8397 10.836 9.18375 8.18006 5.91984 8.18006C2.65592 8.18006 0 10.836 0 14.0999C0.000750152 14.7355 0.25356 15.3448 0.702973 15.7942C1.15239 16.2436 1.76171 16.4964 2.39727 16.4972ZM5.91913 9.5973C7.11295 9.59862 8.25751 10.0734 9.10174 10.9175C9.94597 11.7616 10.4209 12.9061 10.4224 14.0999C10.4224 14.6406 9.98308 15.0799 9.4424 15.0799H2.39727C1.85659 15.0799 1.41725 14.6406 1.41725 14.0999C1.41856 12.9061 1.89336 11.7616 2.73747 10.9175C3.58159 10.0734 4.72608 9.59862 5.91984 9.5973H5.91913Z" fill="#FA5503"/>
</svg>
