<svg width="44" height="44" viewBox="0 0 44 44" fill="none" xmlns="http://www.w3.org/2000/svg">
<path d="M42.7109 2.75H38.7578V1.28906C38.7578 0.577156 38.1807 0 37.4688 0C36.7568 0 36.1797 0.577156 36.1797 1.28906V2.75H31.0234V1.28906C31.0234 0.577156 30.4463 0 29.7344 0C29.0225 0 28.4453 0.577156 28.4453 1.28906V2.75H23.2891V1.28906C23.2891 0.577156 22.7119 0 22 0C21.2881 0 20.7109 0.577156 20.7109 1.28906V2.75H15.5547V1.28906C15.5547 0.577156 14.9775 0 14.2656 0C13.5537 0 12.9766 0.577156 12.9766 1.28906V2.75H7.82031V1.28906C7.82031 0.577156 7.24316 0 6.53125 0C5.81934 0 5.24219 0.577156 5.24219 1.28906V2.75H1.28906C0.577156 2.75 0 3.32716 0 4.03906V42.7109C0 43.4228 0.577156 44 1.28906 44H42.7109C43.4228 44 44 43.4228 44 42.7109V4.03906C44 3.32716 43.4228 2.75 42.7109 2.75ZM5.24219 5.32812V6.61719C5.24219 7.32909 5.81934 7.90625 6.53125 7.90625C7.24316 7.90625 7.82031 7.32909 7.82031 6.61719V5.32812H12.9766V6.61719C12.9766 7.32909 13.5537 7.90625 14.2656 7.90625C14.9775 7.90625 15.5547 7.32909 15.5547 6.61719V5.32812H20.7109V6.61719C20.7109 7.32909 21.2881 7.90625 22 7.90625C22.7119 7.90625 23.2891 7.32909 23.2891 6.61719V5.32812H28.4453V6.61719C28.4453 7.32909 29.0225 7.90625 29.7344 7.90625C30.4463 7.90625 31.0234 7.32909 31.0234 6.61719V5.32812H36.1797V6.61719C36.1797 7.32909 36.7568 7.90625 37.4688 7.90625C38.1807 7.90625 38.7578 7.32909 38.7578 6.61719V5.32812H41.4219V10.4844H2.57812V5.32812H5.24219ZM2.57812 41.4219V13.0625H41.4219V41.4219H2.57812Z" fill="#27B3FF"/>
<path d="M14.2656 18.2188H9.10938C8.39747 18.2188 7.82031 18.7959 7.82031 19.5078V24.6641C7.82031 25.376 8.39747 25.9531 9.10938 25.9531H14.2656C14.9775 25.9531 15.5547 25.376 15.5547 24.6641V19.5078C15.5547 18.7959 14.9775 18.2188 14.2656 18.2188ZM12.9766 23.375H10.3984V20.7969H12.9766V23.375ZM34.8906 18.2188H29.7344C29.0225 18.2188 28.4453 18.7959 28.4453 19.5078V24.6641C28.4453 25.376 29.0225 25.9531 29.7344 25.9531H34.8906C35.6025 25.9531 36.1797 25.376 36.1797 24.6641V19.5078C36.1797 18.7959 35.6025 18.2188 34.8906 18.2188ZM33.6016 23.375H31.0234V20.7969H33.6016V23.375ZM24.5781 28.4453H19.4219C18.71 28.4453 18.1328 29.0225 18.1328 29.7344V34.8906C18.1328 35.6025 18.71 36.1797 19.4219 36.1797H24.5781C25.29 36.1797 25.8672 35.6025 25.8672 34.8906V29.7344C25.8672 29.0225 25.29 28.4453 24.5781 28.4453ZM23.2891 33.6016H20.7109V31.0234H23.2891V33.6016ZM24.5781 18.2188H19.4219C18.71 18.2188 18.1328 18.7959 18.1328 19.5078V24.6641C18.1328 25.376 18.71 25.9531 19.4219 25.9531H24.5781C25.29 25.9531 25.8672 25.376 25.8672 24.6641V19.5078C25.8672 18.7959 25.29 18.2188 24.5781 18.2188ZM23.2891 23.375H20.7109V20.7969H23.2891V23.375ZM34.8906 28.4453H29.7344C29.0225 28.4453 28.4453 29.0225 28.4453 29.7344V34.8906C28.4453 35.6025 29.0225 36.1797 29.7344 36.1797H34.8906C35.6025 36.1797 36.1797 35.6025 36.1797 34.8906V29.7344C36.1797 29.0225 35.6025 28.4453 34.8906 28.4453ZM33.6016 33.6016H31.0234V31.0234H33.6016V33.6016ZM15.0788 29.6623C14.5264 29.2132 13.7145 29.297 13.2654 29.8493L10.6445 33.073L9.92673 32.4845C9.37621 32.0329 8.56402 32.1134 8.11259 32.6638C7.66116 33.2143 7.74151 34.0265 8.29202 34.478L10.0108 35.8873C10.564 36.3411 11.3791 36.2564 11.8284 35.7038L15.2659 31.4756C15.715 30.9232 15.6312 30.1114 15.0788 29.6623Z" fill="#27B3FF"/>
</svg>
