<svg width="22" height="17" viewBox="0 0 22 17" fill="none" xmlns="http://www.w3.org/2000/svg">
<path d="M5.42154 10.1068H8.05985V11.4379H5.42154V10.1068ZM15.3546 11.4379H17.9929V10.1068H15.3546V11.4379ZM21.352 6.01056V14.8764C21.352 15.7864 20.6442 16.5 19.7414 16.5H3.68674C2.78457 16.5 2.05006 15.772 2.05006 14.8764V12.6131H1.61065C0.707152 12.6131 0 11.8994 0 10.9894V2.12364C0 1.21365 0.707197 0.5 1.61065 0.5H17.664C18.5675 0.5 19.302 1.22797 19.302 2.12364V4.38691H19.7414C20.6442 4.38687 21.352 5.10056 21.352 6.01056ZM2.05006 11.2819V6.01056C2.05006 5.10056 2.76896 4.38691 3.68674 4.38691H17.9708V2.12364C17.9708 1.96244 17.833 1.83116 17.664 1.83116H1.61065C1.44816 1.83116 1.33116 1.95465 1.33116 2.12364V10.9894C1.33116 11.1559 1.45078 11.2819 1.61065 11.2819H2.05006ZM20.0209 6.01056C20.0209 5.84156 19.9032 5.71808 19.7414 5.71808H3.68674C3.51254 5.71808 3.38123 5.84419 3.38123 6.01056V14.8764C3.38123 15.0428 3.51254 15.1688 3.68674 15.1688H19.7414C19.9006 15.1688 20.0209 15.0427 20.0209 14.8764V6.01056ZM8.67862 7.11552V8.44669H11.6906C12.0579 8.44669 12.3562 8.74566 12.3562 9.11229C12.3562 9.47888 12.0579 9.7779 11.6906 9.7779H10.3595C10.0904 9.7779 9.84791 9.94039 9.74457 10.1887C9.64186 10.437 9.69844 10.7243 9.88887 10.9141L13.0218 14.047L13.963 13.1058L11.95 11.0922C12.4043 11.033 12.8015 10.809 13.1069 10.4968H14.3497V9.16563C14.3497 9.16563 13.6874 9.1844 13.6874 9.16563C13.6874 8.93116 13.6393 8.65594 13.5652 8.44673H15.0186V7.11557H8.67862V7.11552Z" fill="#FA5503"/>
</svg>
