<svg width="44" height="38" viewBox="0 0 44 38" fill="none" xmlns="http://www.w3.org/2000/svg">
<path d="M41.6494 7.02577H32.9524V3.24691C32.9524 1.45655 31.5064 0 29.7292 0H14.271C12.4935 0 11.0473 1.45655 11.0473 3.24691V7.02577H2.35069C1.05456 7.02577 0 8.08796 0 9.3933V35.6325C0 36.9378 1.05456 38 2.35069 38H41.6493C42.9454 38 44 36.9378 44 35.6325V9.3933C44 8.08796 42.9454 7.02577 41.6494 7.02577ZM12.4622 3.24701C12.4622 2.25941 13.2903 1.42505 14.271 1.42505H29.7292C30.7096 1.42505 31.5376 2.25941 31.5376 3.24701V7.02587H29.3083V4.1709C29.3083 3.98187 29.2337 3.8006 29.101 3.66694C28.9683 3.53329 28.7884 3.45819 28.6007 3.45817H15.3994C15.2117 3.45819 15.0318 3.53329 14.8991 3.66694C14.7664 3.8006 14.6918 3.98187 14.6918 4.1709V7.02587H12.4622V3.24701ZM27.8934 4.88332V7.02577H16.1067V4.88332H27.8934ZM1.41505 9.3933C1.41505 8.87395 1.83466 8.45103 2.35069 8.45103H41.6493C42.1653 8.45103 42.5849 8.87395 42.5849 9.3933V15.4992L36.8325 16.0437V11.465C36.8325 11.3715 36.8142 11.2788 36.7787 11.1923C36.7431 11.1059 36.691 11.0273 36.6253 10.9612C36.5596 10.895 36.4816 10.8425 36.3958 10.8067C36.3099 10.7709 36.218 10.7525 36.1251 10.7525H31.6873C31.5944 10.7525 31.5024 10.7709 31.4165 10.8067C31.3307 10.8425 31.2527 10.895 31.187 10.9612C31.1213 11.0273 31.0692 11.1059 31.0337 11.1923C30.9981 11.2788 30.9798 11.3715 30.9798 11.465V16.5971L22.0001 17.4471L13.0203 16.5973V11.4651C13.0203 11.2761 12.9457 11.0949 12.813 10.9613C12.6803 10.8276 12.5004 10.7526 12.3128 10.7526H7.87544C7.68782 10.7526 7.50788 10.8276 7.37519 10.9613C7.24249 11.0949 7.16792 11.2761 7.16786 11.4651V16.0438L1.41505 15.4993V9.3933ZM35.4176 12.1776V20.1186H32.3948V12.1776H35.4176ZM11.6053 12.1776V20.1186H8.58282V12.1776H11.6053ZM41.6494 36.5749H2.35069C1.83466 36.5749 1.41505 36.1518 1.41505 35.6325V16.9309L7.16786 17.4755V20.8311C7.16792 21.0201 7.24249 21.2014 7.37519 21.335C7.50788 21.4686 7.68782 21.5437 7.87544 21.5436H12.3128C12.5004 21.5437 12.6803 21.4686 12.813 21.335C12.9457 21.2014 13.0203 21.0201 13.0203 20.8311V18.029L21.9339 18.8725C21.9559 18.8746 21.9781 18.8754 22.0001 18.8754C22.0221 18.8754 22.0442 18.8746 22.0662 18.8725L30.9799 18.029V20.8311C30.9799 20.9247 30.9982 21.0174 31.0338 21.1038C31.0693 21.1903 31.1214 21.2688 31.1871 21.335C31.2528 21.4011 31.3308 21.4536 31.4166 21.4894C31.5025 21.5252 31.5945 21.5436 31.6874 21.5436H36.1252C36.2181 21.5436 36.31 21.5252 36.3959 21.4894C36.4817 21.4536 36.5597 21.4011 36.6254 21.335C36.6911 21.2688 36.7432 21.1903 36.7788 21.1038C36.8143 21.0174 36.8326 20.9247 36.8326 20.8311V17.4755L42.585 16.9309V35.6325C42.585 36.1518 42.1654 36.5749 41.6494 36.5749Z" fill="#FA5503"/>
<path d="M21.9873 33.8034C20.6301 33.8034 19.2563 32.8653 19.2563 31.0723V30.452H18.6405C16.8774 30.452 15.9545 29.0671 15.9545 27.6989C15.9545 26.9934 16.1918 26.3296 16.6225 25.8305C17.1131 25.262 17.8298 24.9493 18.6405 24.9493H19.2563V24.3287C19.2563 22.5359 20.6301 21.598 21.9873 21.598C23.3445 21.598 24.7184 22.5359 24.7184 24.3287V24.9493H25.3341C27.114 24.9493 28.0452 26.3334 28.0452 27.7008C28.0452 29.0678 27.1141 30.4519 25.3341 30.4519H24.7184V31.0722C24.7184 32.8652 23.3445 33.8034 21.9873 33.8034ZM18.6404 26.3745C18.234 26.3745 17.9143 26.5061 17.6899 26.7659C17.4861 27.0021 17.3692 27.3423 17.3692 27.699C17.3692 28.3116 17.7022 29.0271 18.6404 29.0271H19.9637C20.1513 29.0271 20.3312 29.1021 20.4639 29.2357C20.5966 29.3693 20.6712 29.5506 20.6712 29.7396V31.0723C20.6712 32.0362 21.3801 32.378 21.9873 32.378C22.5946 32.378 23.3034 32.0363 23.3034 31.0723V29.7396C23.3035 29.646 23.3218 29.5534 23.3573 29.4669C23.3929 29.3804 23.445 29.3019 23.5107 29.2357C23.5764 29.1696 23.6544 29.1171 23.7402 29.0813C23.826 29.0455 23.918 29.0271 24.0109 29.0271H25.3342C26.291 29.0271 26.6306 28.3124 26.6306 27.7009C26.6306 27.0891 26.2911 26.3745 25.3342 26.3745H24.0109C23.8233 26.3745 23.6434 26.2994 23.5107 26.1657C23.378 26.0321 23.3035 25.8508 23.3034 25.6618V24.3287C23.3034 23.3652 22.5946 23.0229 21.9873 23.0229C21.3801 23.0229 20.6712 23.3651 20.6712 24.3287V25.6618C20.6712 25.8508 20.5966 26.0321 20.4639 26.1657C20.3312 26.2994 20.1513 26.3745 19.9637 26.3745H18.6404Z" fill="#FA5503"/>
</svg>
