<svg width="71" height="71" viewBox="0 0 71 71" fill="none" xmlns="http://www.w3.org/2000/svg">
<g id="Group">
<path id="Vector" d="M66.1033 59.9829H56.3101C56.1493 59.983 55.9901 59.9515 55.8415 59.89C55.6929 59.8285 55.5579 59.7383 55.4442 59.6246C55.3305 59.5109 55.2403 59.3759 55.1788 59.2273C55.1174 59.0787 55.0858 58.9195 55.0859 58.7587V48.9655C55.0858 48.8047 55.1174 48.6455 55.1788 48.4969C55.2403 48.3483 55.3305 48.2133 55.4442 48.0996C55.5579 47.9859 55.6929 47.8957 55.8415 47.8342C55.9901 47.7728 56.1493 47.7412 56.3101 47.7413H66.1033C66.2641 47.7412 66.4233 47.7728 66.5719 47.8342C66.7205 47.8957 66.8555 47.9859 66.9692 48.0996C67.083 48.2133 67.1731 48.3483 67.2346 48.4969C67.2961 48.6455 67.3276 48.8047 67.3275 48.9655V58.7587C67.3276 58.9195 67.296 59.0787 67.2345 59.2273C67.1731 59.3759 67.0829 59.5109 66.9692 59.6246C66.8555 59.7383 66.7205 59.8285 66.5719 59.8899C66.4233 59.9514 66.2641 59.983 66.1033 59.9829ZM57.5343 57.5346H64.8792V50.1897H57.5343V57.5346Z" fill="black"/>
<path id="Vector_2" d="M34.2759 4.89661H66.1036C68.8077 4.89661 71.0001 7.08901 71.0001 9.79311V58.7586C71.0001 61.4627 68.8077 63.6551 66.1036 63.6551H34.2759C31.5718 63.6551 29.3794 61.4627 29.3794 58.7586V9.79325C29.3794 7.08915 31.5718 4.89661 34.2759 4.89661Z" fill="#4398D1"/>
<path id="Vector_3" d="M56.3104 58.7587H34.2759V9.79327H66.1036V48.9656L56.3104 58.7587Z" fill="#F2F2F2"/>
<path id="Vector_4" d="M57.5346 4.8965H53.8622V3.67231C53.8622 1.64396 52.2181 0 50.1897 0C48.1614 0 46.5173 1.64396 46.5173 3.67245V4.89664H42.8448L39.1724 14.6898H61.2069L57.5346 4.8965Z" fill="#A2DAEB"/>
<path id="Vector_5" d="M34.2759 51.0343V58.7586H56.3104L66.1036 48.9654V16.1806C56.8576 35.8195 44.227 45.8941 34.2759 51.0343Z" fill="#F0F0F0"/>
<path id="Vector_6" d="M56.3101 58.7585V48.9653H66.1032L56.3101 58.7585Z" fill="#A2DAEB"/>
<path id="Vector_7" d="M14.1572 22.856C12.8944 22.3139 11.5345 22.0344 10.1603 22.0346C4.54885 22.0346 0 26.5835 0 32.195C0.00114524 36.7843 1.06981 41.3105 3.1215 45.4157L4.8965 48.9657L7.00085 67.8994C7.19665 69.6645 8.68765 71.0001 10.4639 71.0001C12.1887 71.0001 13.6553 69.738 13.911 68.0315L16.5931 50.1494C16.9065 48.0622 18.6998 46.5174 20.8102 46.5174C22.9207 46.5174 24.714 48.0622 25.0274 50.1494L27.7094 68.0315C27.9654 69.738 29.432 71.0001 31.1568 71.0001C32.933 71.0001 34.424 69.6645 34.6199 67.8994L36.7242 48.9657L38.4992 45.4157C40.551 41.3105 41.6196 36.7843 41.6207 32.195C41.6207 26.5835 37.0718 22.0346 31.4604 22.0346C30.085 22.0345 28.7239 22.3139 27.4598 22.856C25.3579 23.7561 23.0951 24.2203 20.8085 24.2203C18.5219 24.2203 16.2591 23.7561 14.1572 22.856Z" fill="#E6E6E6"/>
<path id="Vector_8" d="M6.12062 35.4999H3.67237V33.7923C3.67081 32.2329 4.05505 30.6974 4.79086 29.3225C5.52666 27.9477 6.59117 26.7762 7.88952 25.9125L9.24836 27.9495C8.28533 28.5896 7.49572 29.4582 6.94998 30.4777C6.40425 31.4972 6.11937 32.6359 6.12076 33.7923L6.12062 35.4999Z" fill="#F2F2F2"/>
<path id="Vector_9" d="M45.2931 28.1549H61.2069V30.6031H45.2931V28.1549ZM45.2931 35.4998H61.2069V37.948H45.2931V35.4998ZM45.2931 42.8447H61.2069V45.2929H45.2931V42.8447ZM41.6206 20.8101H61.2068V23.2584H41.6206V20.8101ZM45.2931 50.1894H52.6379V52.6377H45.2931V50.1894Z" fill="#CFCFCF"/>
<path id="Vector_10" d="M7.00075 67.8991C7.21375 69.8125 8.9373 71.1908 10.8494 70.9778C11.6132 70.8929 12.3275 70.5579 12.8812 70.025C13.4349 69.4922 13.7969 68.7912 13.911 68.0313L16.4364 51.1908C12.9442 52.7587 9.2908 53.9393 5.5415 54.7114L7.00075 67.8991ZM23.3699 47.3898C24.2633 48.0562 24.8587 49.0473 25.0274 50.149L27.7094 68.0312C27.9947 69.9347 29.7697 71.2457 31.6732 70.9605C32.4331 70.8461 33.1339 70.484 33.6667 69.9303C34.1996 69.3767 34.5346 68.6625 34.6197 67.8989L36.7241 48.9652L38.4991 45.4152C40.5509 41.31 41.6195 36.7838 41.6206 32.1945C41.6191 30.7131 41.2914 29.2503 40.6608 27.9099C36.6799 35.79 30.722 42.5021 23.3699 47.3898Z" fill="#DEDEDE"/>
<path id="Vector_11" d="M40.1823 11.9954L39.1724 14.6897H61.2068L58.2873 6.90424L40.1823 11.9954Z" fill="#8DCFE3"/>
</g>
</svg>
