<svg width="44" height="44" viewBox="0 0 44 44" fill="none" xmlns="http://www.w3.org/2000/svg">
<path d="M22 0C9.86975 0 0 9.86975 0 22C0 34.1302 9.86975 44 22 44C34.1302 44 44 34.1302 44 22C44 9.86975 34.1302 0 22 0ZM22 41.25C11.3877 41.25 2.75 32.615 2.75 22C2.75 11.385 11.3877 2.75 22 2.75C32.6123 2.75 41.25 11.385 41.25 22C41.25 32.615 32.6123 41.25 22 41.25Z" fill="#FA5503"/>
<path d="M28.8748 16.5H27.3596C27.1533 15.477 26.6968 14.553 26.0891 13.75H28.8748C29.6338 13.75 30.2498 13.134 30.2498 12.375C30.2498 11.616 29.6338 11 28.8748 11H15.1248C14.3658 11 13.7498 11.616 13.7498 12.375C13.7498 13.134 14.3658 13.75 15.1248 13.75H20.6248C22.4151 13.75 23.9276 14.9023 24.4968 16.5H15.1248C14.3658 16.5 13.7498 17.116 13.7498 17.875C13.7498 18.634 14.3658 19.25 15.1248 19.25H24.4968C23.9276 20.8477 22.4151 22 20.6248 22H15.1248C14.9461 22 14.7673 22.0358 14.5996 22.1045C14.2626 22.2449 13.9947 22.5127 13.8543 22.8498C13.7849 23.0162 13.7491 23.1947 13.7491 23.375C13.7491 23.5553 13.7849 23.7338 13.8543 23.9002C13.9221 24.0688 14.0242 24.2215 14.1541 24.3485L25.1513 35.3457C25.4208 35.6152 25.7728 35.75 26.1248 35.75C26.4768 35.75 26.8288 35.6152 27.0983 35.3485C27.6346 34.8123 27.6346 33.9405 27.0983 33.4043L18.4441 24.75H20.6248C23.9468 24.75 26.7216 22.385 27.3596 19.25H28.8748C29.6338 19.25 30.2498 18.634 30.2498 17.875C30.2498 17.116 29.6338 16.5 28.8748 16.5Z" fill="#FA5503"/>
</svg>
