<svg width="44" height="44" viewBox="0 0 44 44" fill="none" xmlns="http://www.w3.org/2000/svg">
<path d="M1.1 44H42.9C43.1917 44 43.4715 43.8841 43.6778 43.6778C43.8841 43.4715 44 43.1917 44 42.9V16.5C44 16.2083 43.8841 15.9285 43.6778 15.7222C43.4715 15.5159 43.1917 15.4 42.9 15.4H37.4V5.5C37.4 5.20826 37.2841 4.92847 37.0778 4.72218C36.8715 4.51589 36.5917 4.4 36.3 4.4H30.8V3.3C30.8 2.42479 30.4523 1.58542 29.8335 0.966548C29.2146 0.347678 28.3752 0 27.5 0H16.5C15.6248 0 14.7854 0.347678 14.1665 0.966548C13.5477 1.58542 13.2 2.42479 13.2 3.3V4.4H7.7C7.40826 4.4 7.12847 4.51589 6.92218 4.72218C6.71589 4.92847 6.6 5.20826 6.6 5.5V15.4H1.1C0.808262 15.4 0.528473 15.5159 0.322183 15.7222C0.115893 15.9285 0 16.2083 0 16.5V42.9C0 43.1917 0.115893 43.4715 0.322183 43.6778C0.528473 43.8841 0.808262 44 1.1 44ZM37.4 17.6H41.8V41.8H37.4V17.6ZM25.3 41.8H18.7V34.1H25.3V41.8ZM15.4 3.3C15.4 3.00826 15.5159 2.72847 15.7222 2.52218C15.9285 2.31589 16.2083 2.2 16.5 2.2H27.5C27.7917 2.2 28.0715 2.31589 28.2778 2.52218C28.4841 2.72847 28.6 3.00826 28.6 3.3V14.3C28.6 14.5917 28.4841 14.8715 28.2778 15.0778C28.0715 15.2841 27.7917 15.4 27.5 15.4H16.5C16.2083 15.4 15.9285 15.2841 15.7222 15.0778C15.5159 14.8715 15.4 14.5917 15.4 14.3V3.3ZM8.8 6.6H13.2V14.3C13.2 15.1752 13.5477 16.0146 14.1665 16.6335C14.7854 17.2523 15.6248 17.6 16.5 17.6H27.5C28.3752 17.6 29.2146 17.2523 29.8335 16.6335C30.4523 16.0146 30.8 15.1752 30.8 14.3V6.6H35.2V41.8H27.5V33C27.5 32.7083 27.3841 32.4285 27.1778 32.2222C26.9715 32.0159 26.6917 31.9 26.4 31.9H17.6C17.3083 31.9 17.0285 32.0159 16.8222 32.2222C16.6159 32.4285 16.5 32.7083 16.5 33V41.8H8.8V6.6ZM2.2 17.6H6.6V41.8H2.2V17.6Z" fill="#27B3FF"/>
<path d="M18.7 9.9H20.9V12.1C20.9 12.3917 21.0159 12.6715 21.2222 12.8778C21.4285 13.0841 21.7083 13.2 22 13.2C22.2917 13.2 22.5715 13.0841 22.7778 12.8778C22.9841 12.6715 23.1 12.3917 23.1 12.1V9.9H25.3C25.5917 9.9 25.8715 9.78411 26.0778 9.57782C26.2841 9.37153 26.4 9.09174 26.4 8.8C26.4 8.50826 26.2841 8.22847 26.0778 8.02218C25.8715 7.81589 25.5917 7.7 25.3 7.7H23.1V5.5C23.1 5.20826 22.9841 4.92847 22.7778 4.72218C22.5715 4.51589 22.2917 4.4 22 4.4C21.7083 4.4 21.4285 4.51589 21.2222 4.72218C21.0159 4.92847 20.9 5.20826 20.9 5.5V7.7H18.7C18.4083 7.7 18.1285 7.81589 17.9222 8.02218C17.7159 8.22847 17.6 8.50826 17.6 8.8C17.6 9.09174 17.7159 9.37153 17.9222 9.57782C18.1285 9.78411 18.4083 9.9 18.7 9.9ZM14.3 23.1H16.5C16.7917 23.1 17.0715 22.9841 17.2778 22.7778C17.4841 22.5715 17.6 22.2917 17.6 22C17.6 21.7083 17.4841 21.4285 17.2778 21.2222C17.0715 21.0159 16.7917 20.9 16.5 20.9H14.3C14.0083 20.9 13.7285 21.0159 13.5222 21.2222C13.3159 21.4285 13.2 21.7083 13.2 22C13.2 22.2917 13.3159 22.5715 13.5222 22.7778C13.7285 22.9841 14.0083 23.1 14.3 23.1ZM17.6 27.5C17.6 27.2083 17.4841 26.9285 17.2778 26.7222C17.0715 26.5159 16.7917 26.4 16.5 26.4H14.3C14.0083 26.4 13.7285 26.5159 13.5222 26.7222C13.3159 26.9285 13.2 27.2083 13.2 27.5C13.2 27.7917 13.3159 28.0715 13.5222 28.2778C13.7285 28.4841 14.0083 28.6 14.3 28.6H16.5C16.7917 28.6 17.0715 28.4841 17.2778 28.2778C17.4841 28.0715 17.6 27.7917 17.6 27.5ZM20.9 23.1H23.1C23.3917 23.1 23.6715 22.9841 23.8778 22.7778C24.0841 22.5715 24.2 22.2917 24.2 22C24.2 21.7083 24.0841 21.4285 23.8778 21.2222C23.6715 21.0159 23.3917 20.9 23.1 20.9H20.9C20.6083 20.9 20.3285 21.0159 20.1222 21.2222C19.9159 21.4285 19.8 21.7083 19.8 22C19.8 22.2917 19.9159 22.5715 20.1222 22.7778C20.3285 22.9841 20.6083 23.1 20.9 23.1ZM20.9 28.6H23.1C23.3917 28.6 23.6715 28.4841 23.8778 28.2778C24.0841 28.0715 24.2 27.7917 24.2 27.5C24.2 27.2083 24.0841 26.9285 23.8778 26.7222C23.6715 26.5159 23.3917 26.4 23.1 26.4H20.9C20.6083 26.4 20.3285 26.5159 20.1222 26.7222C19.9159 26.9285 19.8 27.2083 19.8 27.5C19.8 27.7917 19.9159 28.0715 20.1222 28.2778C20.3285 28.4841 20.6083 28.6 20.9 28.6ZM27.5 23.1H29.7C29.9917 23.1 30.2715 22.9841 30.4778 22.7778C30.6841 22.5715 30.8 22.2917 30.8 22C30.8 21.7083 30.6841 21.4285 30.4778 21.2222C30.2715 21.0159 29.9917 20.9 29.7 20.9H27.5C27.2083 20.9 26.9285 21.0159 26.7222 21.2222C26.5159 21.4285 26.4 21.7083 26.4 22C26.4 22.2917 26.5159 22.5715 26.7222 22.7778C26.9285 22.9841 27.2083 23.1 27.5 23.1ZM27.5 28.6H29.7C29.9917 28.6 30.2715 28.4841 30.4778 28.2778C30.6841 28.0715 30.8 27.7917 30.8 27.5C30.8 27.2083 30.6841 26.9285 30.4778 26.7222C30.2715 26.5159 29.9917 26.4 29.7 26.4H27.5C27.2083 26.4 26.9285 26.5159 26.7222 26.7222C26.5159 26.9285 26.4 27.2083 26.4 27.5C26.4 27.7917 26.5159 28.0715 26.7222 28.2778C26.9285 28.4841 27.2083 28.6 27.5 28.6Z" fill="#27B3FF"/>
</svg>
